<svg width="50" height="21" viewBox="0 0 50 21" fill="none" xmlns="http://www.w3.org/2000/svg">
<path fill-rule="evenodd" clip-rule="evenodd" d="M1.65539 20.4918H1.49992C1.49992 20.4586 1.46098 20.4087 1.46098 20.392C1.46098 20.3755 1.46098 20.3423 1.34416 20.3423H1.11053V20.4918H0.993712V20.1428H1.34416C1.49992 20.1428 1.61645 20.1595 1.61645 20.2258C1.61645 20.2757 1.57751 20.2924 1.53886 20.3088C1.57779 20.3256 1.61645 20.3422 1.61645 20.3755V20.4419C1.61645 20.4586 1.61645 20.4586 1.65539 20.4586V20.4918ZM1.49992 20.2425C1.49992 20.1927 1.42204 20.1927 1.3831 20.1927H1.11053V20.2924H1.34416C1.42204 20.2924 1.49992 20.2757 1.49992 20.2425V20.2425ZM2.16159 20.309C2.16159 20.1096 1.77249 19.9432 1.26628 19.9432C0.7993 19.9432 0.409912 20.1096 0.409912 20.309C0.409912 20.525 0.7993 20.6915 1.26628 20.6915C1.77221 20.6913 2.16159 20.525 2.16159 20.309ZM2.04478 20.309C2.04478 20.4919 1.69461 20.6248 1.26628 20.6248C0.837957 20.6248 0.526729 20.4918 0.526729 20.309C0.526729 20.1428 0.838239 19.9931 1.26628 19.9931C1.69433 19.9931 2.04478 20.1428 2.04478 20.309ZM49.9999 13.5926C49.9999 14.0914 49.2604 14.3238 47.9367 14.3238H45.4071V13.825H47.9367C48.1704 13.825 48.365 13.8085 48.4432 13.7754C48.5208 13.742 48.5987 13.6921 48.5987 13.6257C48.5987 13.5591 48.5211 13.4926 48.4432 13.4595C48.365 13.4261 48.2096 13.4096 47.9759 13.4096C46.7697 13.3929 45.2514 13.4261 45.2514 12.6947C45.2514 12.3621 45.7573 11.9963 47.1196 11.9963H49.7273V12.4951H47.314C47.0809 12.4951 46.9249 12.4951 46.8081 12.5283C46.6912 12.5782 46.6136 12.6281 46.6136 12.7112C46.6136 12.7944 46.7305 12.8443 46.8859 12.8777C47.042 12.8942 47.1977 12.9108 47.3924 12.9108H48.0928C48.8323 12.9108 49.2996 12.9772 49.6111 13.0937C49.8442 13.21 49.9999 13.3598 49.9999 13.5926V13.5926ZM44.5115 13.0937C44.2 12.9772 43.7327 12.9108 42.9932 12.9108H42.2928C42.0984 12.9108 41.9424 12.8941 41.7869 12.8777C41.6309 12.8443 41.5146 12.7944 41.5146 12.7112C41.5146 12.6281 41.5533 12.5782 41.709 12.5283C41.8259 12.4951 41.9813 12.4951 42.215 12.4951H44.6283V11.9963H42.0206C40.619 11.9963 40.1518 12.3621 40.1518 12.6947C40.1518 13.426 41.6701 13.3929 42.8769 13.4096C43.11 13.4096 43.266 13.4261 43.3436 13.4595C43.4212 13.4926 43.4997 13.5591 43.4997 13.6257C43.4997 13.6921 43.4215 13.742 43.3436 13.7754C43.2268 13.8085 43.0713 13.825 42.8377 13.825H40.3075V14.3238H42.8377C44.1608 14.3238 44.9006 14.0912 44.9006 13.5926C44.9006 13.3598 44.7452 13.21 44.5115 13.0937V13.0937ZM39.529 13.8419H36.4546V13.3764H39.4514V12.911H36.4546V12.4786H39.529V11.9966H35.1699V14.324H39.529V13.8419ZM33.7684 12.113C33.34 12.0132 32.8341 11.9965 32.1724 11.9965H29.1755V14.3238H30.4986V13.476H31.9001C32.3668 13.476 32.6397 13.4928 32.8344 13.5758C33.068 13.6921 33.068 13.8917 33.068 14.0414V14.3238H34.3522V13.8749C34.3522 13.6588 34.3135 13.5591 34.1577 13.4428C34.0409 13.3761 33.8079 13.2931 33.4963 13.2432C33.8462 13.1935 34.4306 12.994 34.4306 12.6281C34.4303 12.3622 34.1967 12.2125 33.7684 12.113V12.113ZM26.3728 11.9965H22.2078L20.5339 12.7612L18.938 11.9965H13.6833V14.3238H18.8604L20.5342 13.5591L22.1302 14.3238H24.6603V13.5427H26.2952C27.4239 13.5427 28.5531 13.4096 28.5531 12.7612C28.5528 12.1295 27.3849 11.9965 26.3728 11.9965ZM32.7173 12.9608C32.5229 12.994 32.3282 12.994 32.0945 12.994L30.4986 13.0107V12.4785H32.0945C32.3282 12.4785 32.5618 12.4785 32.7173 12.5284C32.8733 12.5618 32.9896 12.6282 32.9896 12.728C32.9896 12.8278 32.8733 12.9109 32.7173 12.9608V12.9608ZM26.3728 13.0771H24.6601V12.4785H26.3728C26.8401 12.4785 27.1513 12.5618 27.1513 12.7612C27.1513 12.9608 26.8398 13.0771 26.3728 13.0771ZM21.3514 13.1601L23.3754 12.2459V14.1245L21.3514 13.1601ZM18.1985 13.8419H14.9677V13.3764H17.848V12.911H14.9677V12.4786H18.2374L19.6776 13.1603L18.1985 13.8419V13.8419ZM46.3797 10.3173H44.5115L42.0592 8.57168V10.3173H39.4128L38.9063 9.80189H36.1817L35.6758 10.3173H34.1575C33.5347 10.3173 32.7173 10.2508 32.2506 10.0512C31.8223 9.85178 31.5886 9.58581 31.5886 9.17015C31.5886 8.82102 31.7054 8.50515 32.289 8.25581C32.6781 8.07287 33.379 7.98983 34.274 7.98983H35.5195V8.48864H34.274C33.8073 8.48864 33.5344 8.5219 33.2621 8.62169C33.0285 8.72148 32.9117 8.9043 32.9117 9.15364C32.9117 9.40298 33.0285 9.58593 33.2621 9.70234C33.4566 9.78538 33.8073 9.81864 34.1572 9.81864H34.7413L36.6095 7.98995H38.5559L40.7356 10.1844V7.98983H42.7598L45.0564 9.60244V7.98983H46.3795V10.3173H46.3797V10.3173ZM30.9269 7.98983H29.6039V10.3173H30.9269V7.98983V7.98983ZM28.1631 8.08962C27.7348 7.98983 27.2681 7.98983 26.6064 7.98983H23.609V10.3173H24.8934V9.46939H26.2946C26.7619 9.46939 27.0734 9.48602 27.2678 9.56917C27.5015 9.68559 27.4622 9.88516 27.4622 10.0181V10.3173H28.7853V9.85178C28.7853 9.65233 28.7467 9.55254 28.5522 9.43613C28.4354 9.3696 28.2018 9.28645 27.9295 9.23667C28.2794 9.17015 28.8638 8.98733 28.8638 8.62157C28.864 8.35559 28.5912 8.20591 28.1631 8.08962ZM22.6747 9.83527H19.6386V9.36972H22.6358V8.88767H19.6386V8.47201H22.6747V7.98995H18.3153V10.3175H22.6747V9.83527ZM17.3421 7.98983H15.2013L13.6054 9.56917L11.8926 7.98983H9.79078V10.1843L7.57212 7.98983H5.62602L3.29054 10.3173H4.69177L5.19769 9.80189H7.92228L8.42821 10.3173H11.0752V8.48864L12.9824 10.3173H14.111L16.0185 8.48864V10.3173H17.3418V7.98983H17.3421ZM38.4396 9.3032L37.544 8.38886L36.649 9.3032H38.4396ZM27.1513 8.93756C26.9569 8.98745 26.7622 8.98745 26.4896 8.98745H24.8934V8.47213H26.4893C26.723 8.47213 26.995 8.47213 27.151 8.50539C27.3065 8.55529 27.3846 8.62181 27.3846 8.72147C27.3846 8.82114 27.3068 8.90417 27.1513 8.93756V8.93756ZM5.66468 9.3032L6.55999 8.38886L7.4553 9.3032H5.66468V9.3032ZM49.6887 0.691467H3.25132V9.07049L4.84725 7.5244H8.23351L8.70078 7.9068V7.5244H12.6711L13.5664 8.35559L14.4228 7.5244H27.0734C27.6569 7.5244 28.1629 7.5743 28.5525 7.70722V7.5244H32.0167V7.70722C32.6002 7.57418 33.3397 7.5244 34.1964 7.5244H39.2175L39.6848 7.9068V7.5244H43.3826L43.9277 7.9068V7.5244H47.5473V10.7829H43.8888L43.1884 10.2842V10.7829H38.634L38.1281 10.2509H36.9989L36.4929 10.7829H34.1188C33.1846 10.7829 32.4837 10.6831 32.017 10.5834V10.7829H26.3728V10.0347C26.3728 9.93494 26.3339 9.91831 26.1781 9.91831H25.9837V10.7828H15.0845V10.3671L14.6954 10.7828H12.3988L12.0097 10.3837V10.7828H7.61106L7.14407 10.2508H6.01513L5.50921 10.7828H3.25132V20.6082H49.6887V14.6397C49.1828 14.7395 48.4819 14.7894 47.7813 14.7894H44.3947V14.5898C44.0056 14.723 43.3047 14.7894 42.6433 14.7894H31.9777V14.0414C31.9777 13.9416 31.9391 13.9416 31.7441 13.9416H31.5497V14.7894H28.0463V13.9083C27.4628 14.0246 26.8008 14.0246 26.217 14.0246H25.8277V14.7894H21.5461L20.5342 14.2906L19.4056 14.7894H12.5154V11.531H19.5218L20.5339 12.0296L21.624 11.531H26.3339C26.8784 11.531 27.774 11.5642 28.1631 11.7304V11.531H32.3668C32.7952 11.531 33.6129 11.5642 34.1575 11.7304V11.531H40.5022V11.7305C40.8527 11.5974 41.5146 11.5312 42.0982 11.5312H45.6402V11.7305C46.0299 11.6142 46.5744 11.5312 47.2753 11.5312H49.6887V0.691467V0.691467Z" fill="#0077A6"/>
</svg>
