<svg width="80" height="21" viewBox="0 0 80 21" fill="none" xmlns="http://www.w3.org/2000/svg">
<path fill-rule="evenodd" clip-rule="evenodd" d="M3.61108 0.96902H0V13.3523H3.56419C5.4874 13.3523 6.84708 12.9361 8.06655 11.9198C9.47357 10.765 10.3644 9.00868 10.3644 7.16044C10.3644 3.51062 7.59724 0.96902 3.61108 0.96902V0.96902ZM6.47199 10.3026C5.67494 10.9497 4.68944 11.2731 3.09534 11.2731H2.43895V3.09442H3.09534C4.68944 3.09442 5.6276 3.37159 6.47199 4.06451C7.31593 4.80362 7.83212 5.95938 7.83212 7.16044C7.83167 8.36195 7.31593 9.56346 6.47199 10.3026ZM11.4901 13.3528H13.9286V0.96902H11.4901V13.3528ZM19.9313 5.72841C18.4305 5.17408 18.0085 4.85071 18.0085 4.15735C18.0085 3.37204 18.8056 2.8177 19.8375 2.8177C20.5877 2.8177 21.1976 3.09487 21.8071 3.78779L23.1204 2.17098C22.0416 1.24664 20.7757 0.784693 19.4155 0.784693C17.1646 0.784693 15.4763 2.30956 15.4763 4.34257C15.4763 6.05222 16.2733 6.88417 18.5716 7.71568C19.5566 8.03904 20.0255 8.27001 20.2599 8.4086C20.7757 8.73241 21.0101 9.1939 21.0101 9.70249C21.0101 10.7192 20.213 11.4583 19.0873 11.4583C17.9616 11.4583 16.977 10.8578 16.414 9.79488L14.8667 11.3198C15.9924 12.9366 17.3521 13.6761 19.228 13.6761C21.7602 13.6761 23.5428 12.0127 23.5428 9.61011C23.5423 7.62284 22.6984 6.74469 19.9313 5.72841V5.72841ZM24.293 7.16044C24.293 10.8107 27.2008 13.6295 30.952 13.6295C31.984 13.6295 32.9217 13.4443 34.0005 12.9361V10.0712C33.0155 11.0412 32.1715 11.4574 31.0458 11.4574C28.6073 11.4574 26.8252 9.6554 26.8252 7.16C26.8252 4.80362 28.6542 2.9092 30.952 2.9092C32.1246 2.9092 33.0155 3.32495 34.0005 4.29548V1.47671C32.9686 0.921931 32.0777 0.691406 30.9989 0.691406C27.2941 0.691855 24.293 3.60301 24.293 7.16044V7.16044Z" fill="white"/>
<path fill-rule="evenodd" clip-rule="evenodd" d="M41.6461 0.692505C37.9408 0.692505 34.9392 3.55747 34.9392 7.06871C34.9392 10.858 37.8001 13.6301 41.6461 13.6301C45.3969 13.6301 48.3521 10.8114 48.3521 7.16109C48.3525 3.55747 45.4442 0.692505 41.6461 0.692505Z" fill="#DB8135"/>
<path fill-rule="evenodd" clip-rule="evenodd" d="M41.6461 0.692505C37.9408 0.692505 34.9392 3.55747 34.9392 7.06871C34.9392 10.858 37.8001 13.6301 41.6461 13.6301C45.3969 13.6301 48.3521 10.8114 48.3521 7.16109C48.3525 3.55747 45.4442 0.692505 41.6461 0.692505ZM41.6461 7.16109H48.3521H41.6461Z" fill="#DB8135"/>
<path fill-rule="evenodd" clip-rule="evenodd" d="M41.6461 7.16109H48.3521C48.3521 3.55702 45.4438 0.692505 41.6461 0.692505C37.9408 0.692505 34.9392 3.55747 34.9392 7.06871C34.9392 10.858 37.8001 13.6301 41.6461 13.6301C45.3969 13.6301 48.3521 10.8114 48.3521 7.16109H41.6461Z" fill="#DB8135"/>
<path fill-rule="evenodd" clip-rule="evenodd" d="M41.6461 7.16109H48.3521C48.3521 3.55702 45.4438 0.692505 41.6461 0.692505C37.9408 0.692505 34.9392 3.55747 34.9392 7.06871C34.9392 10.858 37.8001 13.6301 41.6461 13.6301C45.3969 13.6301 48.3521 10.8114 48.3521 7.16109H41.6461Z" fill="#DB8137"/>
<path fill-rule="evenodd" clip-rule="evenodd" d="M41.6461 7.16109H48.3521C48.3521 3.55702 45.4438 0.692505 41.6461 0.692505C37.9408 0.692505 34.9392 3.55747 34.9392 7.06871C34.9392 10.858 37.8001 13.6301 41.6461 13.6301C45.3969 13.6301 48.3521 10.8114 48.3521 7.16109H41.6461Z" fill="#DC8337"/>
<path fill-rule="evenodd" clip-rule="evenodd" d="M41.6461 7.16109H48.3521C48.3521 3.55702 45.4438 0.692505 41.6461 0.692505C37.9408 0.692505 34.9392 3.55747 34.9392 7.06871C34.9392 10.858 37.8001 13.6301 41.6461 13.6301C45.3969 13.6301 48.3521 10.8114 48.3521 7.16109H41.6461Z" fill="#DC8539"/>
<path fill-rule="evenodd" clip-rule="evenodd" d="M41.6461 7.16109H48.3521C48.3521 3.55702 45.4438 0.692505 41.6461 0.692505C37.9408 0.692505 34.9392 3.55747 34.9392 7.06871C34.9392 10.858 37.8001 13.6301 41.6461 13.6301C45.3969 13.6301 48.3521 10.8114 48.3521 7.16109H41.6461Z" fill="#DC853A"/>
<path fill-rule="evenodd" clip-rule="evenodd" d="M41.6461 7.16109H48.3521C48.3521 3.55702 45.4438 0.692505 41.6461 0.692505C37.9408 0.692505 34.9392 3.55747 34.9392 7.06871C34.9392 10.858 37.8001 13.6301 41.6461 13.6301C45.3969 13.6301 48.3521 10.8114 48.3521 7.16109H41.6461Z" fill="#DC853C"/>
<path fill-rule="evenodd" clip-rule="evenodd" d="M41.6461 7.16109H48.3521C48.3521 3.55702 45.4438 0.692505 41.6461 0.692505C37.9408 0.692505 34.9392 3.55747 34.9392 7.06871C34.9392 10.858 37.8001 13.6301 41.6461 13.6301C45.3969 13.6301 48.3521 10.8114 48.3521 7.16109H41.6461Z" fill="#DD873E"/>
<path fill-rule="evenodd" clip-rule="evenodd" d="M41.6461 7.16109H48.3521C48.3521 3.55702 45.4438 0.692505 41.6461 0.692505C37.9408 0.692505 34.9392 3.55747 34.9392 7.06871C34.9392 10.858 37.8001 13.6301 41.6461 13.6301C45.3969 13.6301 48.3521 10.8114 48.3521 7.16109H41.6461Z" fill="#DD873E"/>
<path fill-rule="evenodd" clip-rule="evenodd" d="M41.6461 7.16109H48.3521C48.3521 3.55702 45.4438 0.692505 41.6461 0.692505C37.9408 0.692505 34.9392 3.55747 34.9392 7.06871C34.9392 10.858 37.8001 13.6301 41.6461 13.6301C45.3969 13.6301 48.3521 10.8114 48.3521 7.16109H41.6461Z" fill="#DD883F"/>
<path fill-rule="evenodd" clip-rule="evenodd" d="M41.6461 7.16109H48.3521C48.3521 3.55702 45.4438 0.692505 41.6461 0.692505C37.9408 0.692505 34.9392 3.55747 34.9392 7.06871C34.9392 10.858 37.8001 13.6301 41.6461 13.6301C45.3969 13.6301 48.3521 10.8114 48.3521 7.16109H41.6461Z" fill="#DD8841"/>
<path fill-rule="evenodd" clip-rule="evenodd" d="M41.6461 7.16109H48.3521C48.3521 3.55702 45.4438 0.692505 41.6461 0.692505C37.9408 0.692505 34.9392 3.55747 34.9392 7.06871C34.9392 10.858 37.8001 13.6301 41.6461 13.6301C45.3969 13.6301 48.3521 10.8114 48.3521 7.16109H41.6461Z" fill="#DE8A41"/>
<path fill-rule="evenodd" clip-rule="evenodd" d="M41.6461 7.16109H48.3521C48.3521 3.55702 45.4438 0.692505 41.6461 0.692505C37.9408 0.692505 34.9392 3.55747 34.9392 7.06871C34.9392 10.858 37.8001 13.6301 41.6461 13.6301C45.3969 13.6301 48.3521 10.8114 48.3521 7.16109H41.6461Z" fill="#DE8A43"/>
<path fill-rule="evenodd" clip-rule="evenodd" d="M41.6461 7.16109H48.3521C48.3521 3.55702 45.4438 0.692505 41.6461 0.692505C37.9408 0.692505 34.9392 3.55747 34.9392 7.06871C34.9392 10.858 37.8001 13.6301 41.6461 13.6301C45.3969 13.6301 48.3521 10.8114 48.3521 7.16109H41.6461Z" fill="#DE8A44"/>
<path fill-rule="evenodd" clip-rule="evenodd" d="M41.6461 7.16109H48.3521C48.3521 3.55702 45.4438 0.692505 41.6461 0.692505C37.9408 0.692505 34.9392 3.55747 34.9392 7.06871C34.9392 10.858 37.8001 13.6301 41.6461 13.6301C45.3969 13.6301 48.3521 10.8114 48.3521 7.16109H41.6461Z" fill="#DE8C46"/>
<path fill-rule="evenodd" clip-rule="evenodd" d="M41.6454 7.16044H48.3514H41.6454ZM48.3518 7.16044C48.3518 7.10438 48.3509 7.04832 48.3491 6.99226V6.99002C48.3479 6.93497 48.3458 6.87995 48.3427 6.82497V6.82049C48.34 6.76663 48.3365 6.7128 48.3323 6.65903C48.3323 6.65679 48.3323 6.65455 48.3314 6.6523C48.3277 6.59948 48.3233 6.5467 48.3182 6.49398C48.3172 6.49085 48.3172 6.48816 48.3172 6.48502C48.3119 6.43334 48.3057 6.38176 48.2986 6.33029V6.32894C48.2922 6.27985 48.2854 6.23081 48.2781 6.18184C48.2772 6.1769 48.2763 6.17197 48.2763 6.16704C48.2681 6.1186 48.2603 6.07061 48.2512 6.02217L48.2485 6.00603L48.2344 5.92754L48.2157 5.83471L48.2062 5.7903C48.198 5.75263 48.1902 5.71496 48.1811 5.67773C48.1775 5.66024 48.172 5.6432 48.1688 5.62571L48.142 5.52076L48.1151 5.42209L48.1019 5.37366C48.0924 5.33912 48.0815 5.30504 48.0719 5.27095L48.056 5.21758C47.2257 2.5791 44.7289 0.691406 41.6459 0.691406C38.932 0.691406 36.5964 2.22883 35.5403 4.43093C35.1492 5.27343 34.9444 6.18825 34.9395 7.1147C34.9445 7.91526 35.0778 8.67007 35.3205 9.36209L35.3414 9.41994L35.3505 9.44416C35.6093 10.1358 35.984 10.7798 36.4589 11.3494C37.6652 12.7675 39.5023 13.629 41.6459 13.629C44.6934 13.629 47.2148 11.7687 48.0541 9.11273L48.0969 8.97011V8.96966C48.2193 8.54513 48.298 8.10954 48.3318 7.66948L48.3327 7.66859C48.3364 7.61297 48.3409 7.55691 48.3432 7.50085V7.5004C48.3488 7.38717 48.3517 7.27381 48.3518 7.16044V7.16044Z" fill="#DF8E47"/>
<path fill-rule="evenodd" clip-rule="evenodd" d="M41.6439 7.16109H48.303C48.303 4.64775 46.8422 2.47212 44.7183 1.38497C43.8042 0.941865 42.7632 0.692505 41.6439 0.692505C40.2032 0.692505 38.8708 1.12619 37.7779 1.86082C36.0905 3.0417 34.9839 4.97335 34.9839 7.16109C34.9839 9.5677 36.3231 11.6859 38.3014 12.8278C39.2723 13.3431 40.4062 13.6301 41.6439 13.6301C43.2043 13.6301 44.6259 13.1422 45.7548 12.3107C47.3024 11.1051 48.303 9.24075 48.303 7.16109H41.6439Z" fill="#DF8E48"/>
<path fill-rule="evenodd" clip-rule="evenodd" d="M41.6453 7.16109H48.2102C48.2102 3.60321 45.256 0.692505 41.6453 0.692505C41.5884 0.692505 41.5324 0.693401 41.4764 0.694746H41.4719C37.9405 0.78579 35.0791 3.66062 35.0791 7.16109C35.0775 8.51564 35.5041 9.83705 36.2997 10.9417C37.0953 12.0464 38.2204 12.8795 39.5186 13.3252C40.1805 13.5238 40.8938 13.6306 41.6449 13.6306C42.5616 13.6306 43.4302 13.4615 44.2204 13.1543C45.4066 12.6483 46.4165 11.8112 47.1254 10.7462C47.8344 9.68128 48.2113 8.43512 48.2097 7.16154H41.6453V7.16109Z" fill="#DF8E4A"/>
<path fill-rule="evenodd" clip-rule="evenodd" d="M41.6429 7.16064H48.1613C48.1613 3.64895 45.2531 0.737793 41.6429 0.737793C38.0313 0.737793 35.1236 3.64895 35.1236 7.16064C35.1217 8.00465 35.2891 8.84071 35.616 9.62082C35.943 10.4009 36.4231 11.1097 37.0289 11.7065C37.6347 12.3033 38.3541 12.7763 39.1459 13.0984C39.9377 13.4205 40.7863 13.5854 41.6429 13.5835C42.4994 13.5853 43.3479 13.4203 44.1396 13.0982C44.9313 12.776 45.6506 12.303 46.2563 11.7062C46.8619 11.1094 47.342 10.4007 47.6689 9.62062C47.9958 8.84056 48.1632 8.00457 48.1613 7.16064H41.6429V7.16064Z" fill="#DF904A"/>
<path fill-rule="evenodd" clip-rule="evenodd" d="M41.6458 7.16065H48.1173C48.1173 3.64897 45.2091 0.8302 41.6458 0.8302C38.0811 0.8302 35.1733 3.64897 35.1733 7.16065C35.1733 10.6728 38.0811 13.5373 41.6458 13.5373C45.2091 13.5373 48.1173 10.6723 48.1173 7.16065H41.6458Z" fill="#E0914C"/>
<path fill-rule="evenodd" clip-rule="evenodd" d="M41.6438 7.1604H48.068C48.068 3.6949 45.1607 0.876587 41.6438 0.876587C38.1261 0.876587 35.2183 3.6949 35.2183 7.1604C35.2183 10.6725 38.1261 13.4909 41.6438 13.4909C45.1611 13.4909 48.068 10.6725 48.068 7.1604H41.6438Z" fill="#E0914E"/>
<path fill-rule="evenodd" clip-rule="evenodd" d="M41.645 7.16055H47.9759C47.9759 3.74125 45.1619 0.922485 41.645 0.922485C38.1273 0.922485 35.3132 3.74125 35.3132 7.16055C35.3132 10.626 38.1273 13.4444 41.645 13.4444C45.1623 13.4444 47.9759 10.626 47.9759 7.16055H41.645Z" fill="#DF924F"/>
<path fill-rule="evenodd" clip-rule="evenodd" d="M41.6431 7.16042H47.9271C47.9271 3.74112 45.113 0.968994 41.6431 0.968994C38.1722 0.968994 35.3582 3.74157 35.3582 7.16042C35.3582 10.5793 38.1722 13.3523 41.6431 13.3523C45.113 13.3523 47.9271 10.5793 47.9271 7.16042H41.6431Z" fill="#E09351"/>
<path fill-rule="evenodd" clip-rule="evenodd" d="M41.6457 7.16031H47.8824C47.8824 3.78721 45.0684 1.06128 41.6457 1.06128C38.2217 1.06128 35.4077 3.78721 35.4077 7.16031C35.4077 10.5796 38.2217 13.306 41.6457 13.306C45.0688 13.306 47.8824 10.5796 47.8824 7.16031H41.6457Z" fill="#E09552"/>
<path fill-rule="evenodd" clip-rule="evenodd" d="M41.644 7.1605H47.7873C47.7873 3.83404 45.0666 1.10767 41.644 1.10767C38.22 1.10767 35.4529 3.83404 35.4529 7.1605C35.4529 10.5336 38.22 13.2595 41.644 13.2595C45.0671 13.2595 47.7873 10.5336 47.7873 7.1605H41.644Z" fill="#E09554"/>
<path fill-rule="evenodd" clip-rule="evenodd" d="M41.6448 7.16022H47.7412C47.7427 6.371 47.5861 5.58926 47.2802 4.85983C46.9744 4.1304 46.5254 3.46765 45.959 2.90959C45.3926 2.35153 44.7199 1.90913 43.9796 1.6078C43.2392 1.30646 42.4458 1.1521 41.6448 1.15358C40.8437 1.15198 40.0502 1.30625 39.3098 1.60755C38.5694 1.90884 37.8966 2.35122 37.3302 2.9093C36.7637 3.46738 36.3146 4.13017 36.0088 4.85966C35.7029 5.58914 35.5463 6.37095 35.5479 7.16022C35.5479 10.4871 38.2677 13.2135 41.6448 13.2135C45.0205 13.2135 47.7412 10.4871 47.7412 7.16022H41.6448Z" fill="#E09555"/>
<path fill-rule="evenodd" clip-rule="evenodd" d="M41.643 7.16052H47.6921C47.6921 3.87981 44.9723 1.20007 41.643 1.20007C38.3128 1.20007 35.5925 3.87981 35.5925 7.16052C35.5925 10.4874 38.3128 13.1214 41.643 13.1214C42.438 13.1233 43.2255 12.9704 43.9604 12.6715C44.6952 12.3726 45.3629 11.9336 45.925 11.3797C46.4871 10.8258 46.9326 10.1679 47.2358 9.44383C47.5391 8.71977 47.6942 7.94381 47.6921 7.16052H41.643Z" fill="#E19756"/>
<path fill-rule="evenodd" clip-rule="evenodd" d="M41.6455 7.16042H47.6477C47.6477 3.92635 44.9753 1.29236 41.6455 1.29236C38.3153 1.29236 35.6424 3.92635 35.6424 7.16042C35.6399 7.93781 35.7935 8.708 36.0943 9.42668C36.3951 10.1454 36.8372 10.7983 37.3952 11.348C37.9531 11.8977 38.6159 12.3332 39.3453 12.6296C40.0748 12.9259 40.8565 13.0772 41.6455 13.0747C42.4344 13.077 43.2161 12.9257 43.9454 12.6293C44.6747 12.3329 45.3374 11.8974 45.8952 11.3477C46.4531 10.798 46.8951 10.1451 47.1959 9.42647C47.4966 8.70785 47.6502 7.93773 47.6477 7.16042H41.6455Z" fill="#E19757"/>
<path fill-rule="evenodd" clip-rule="evenodd" d="M41.6438 7.16073H47.5522C47.5522 3.92666 44.9257 1.33887 41.6438 1.33887C38.3604 1.33887 35.6875 3.92666 35.6875 7.16073C35.6875 10.3953 38.3609 13.0288 41.6438 13.0288C44.9262 13.0288 47.5522 10.3948 47.5522 7.16073H41.6438V7.16073Z" fill="#E29959"/>
<path fill-rule="evenodd" clip-rule="evenodd" d="M41.6447 7.16044H47.5063C47.5063 3.97211 44.8798 1.38477 41.6447 1.38477C38.4083 1.38477 35.7822 3.97211 35.7822 7.16044C35.7822 10.3488 38.4087 12.9823 41.6447 12.9823C44.8798 12.9823 47.5063 10.3488 47.5063 7.16044H41.6447Z" fill="#E2995B"/>
<path fill-rule="evenodd" clip-rule="evenodd" d="M41.6432 7.16063H47.4575C47.4575 4.01894 44.831 1.43115 41.6432 1.43115C38.4537 1.43115 35.8276 4.01894 35.8276 7.16063C35.8276 10.349 38.4541 12.8901 41.6432 12.8901C44.8314 12.8901 47.4575 10.349 47.4575 7.16063H41.6432Z" fill="#E29B5B"/>
<path fill-rule="evenodd" clip-rule="evenodd" d="M41.6454 7.16065H47.4137C47.4137 4.06471 44.8336 1.52356 41.6454 1.52356C38.4559 1.52356 35.8767 4.06471 35.8767 7.16065C35.8767 10.3028 38.4563 12.8439 41.6454 12.8439C44.8336 12.8439 47.4137 10.3023 47.4137 7.16065H41.6454Z" fill="#E29B5D"/>
<path fill-rule="evenodd" clip-rule="evenodd" d="M41.6464 7.16036H47.3204C47.3218 6.42579 47.1761 5.69817 46.8914 5.01924C46.6068 4.34031 46.1889 3.72344 45.6618 3.204C45.1346 2.68456 44.5085 2.27278 43.8195 1.99229C43.1304 1.7118 42.3919 1.56811 41.6464 1.56947C38.5037 1.56947 35.9714 4.06442 35.9714 7.16036C35.9714 10.2563 38.5037 12.7979 41.6464 12.7979C44.7881 12.7979 47.3204 10.2563 47.3204 7.16036H41.6464Z" fill="#E39D5F"/>
<path fill-rule="evenodd" clip-rule="evenodd" d="M41.6447 7.16054H47.2713C47.2713 4.1108 44.7395 1.61584 41.6447 1.61584C38.5489 1.61584 36.0166 4.1108 36.0166 7.16054C36.0166 10.2565 38.5489 12.7514 41.6447 12.7514C44.7395 12.7514 47.2713 10.2565 47.2713 7.16054H41.6447Z" fill="#E39D61"/>
<path fill-rule="evenodd" clip-rule="evenodd" d="M41.6432 7.16024H47.2239C47.2239 4.1567 44.7381 1.66174 41.6432 1.66174C38.5474 1.66174 36.062 4.1567 36.062 7.16024C36.062 10.21 38.5474 12.6587 41.6432 12.6587C44.7381 12.6587 47.2239 10.21 47.2239 7.16024H41.6432Z" fill="#E39F63"/>
<path fill-rule="evenodd" clip-rule="evenodd" d="M41.6456 7.16014H47.179C47.179 4.1566 44.6932 1.75403 41.6456 1.75403C38.5967 1.75403 36.1113 4.1566 36.1113 7.16014C36.1113 10.1637 38.5967 12.6129 41.6456 12.6129C44.6932 12.6129 47.179 10.1637 47.179 7.16014H41.6456Z" fill="#E39F63"/>
<path fill-rule="evenodd" clip-rule="evenodd" d="M41.6463 7.16046H47.0855C47.0855 4.20355 44.6479 1.80054 41.6463 1.80054C38.6443 1.80054 36.2058 4.2031 36.2058 7.16046C36.2058 10.164 38.6443 12.5666 41.6463 12.5666C44.6479 12.5666 47.0855 10.164 47.0855 7.16046H41.6463Z" fill="#E39F64"/>
<path fill-rule="evenodd" clip-rule="evenodd" d="M41.6446 7.16065H47.0378C47.0378 4.24994 44.6462 1.84692 41.6446 1.84692C38.6426 1.84692 36.251 4.24994 36.251 7.16065C36.251 10.118 38.6426 12.521 41.6446 12.521C44.6462 12.521 47.0378 10.118 47.0378 7.16065H41.6446Z" fill="#E4A166"/>
<path fill-rule="evenodd" clip-rule="evenodd" d="M41.6431 7.16035H46.989C46.989 4.24964 44.5974 1.89282 41.6431 1.89282C38.688 1.89282 36.2964 4.24919 36.2964 7.16035C36.2964 10.0715 38.688 12.4283 41.6431 12.4283C44.5974 12.4283 46.989 10.0715 46.989 7.16035H41.6431Z" fill="#E4A367"/>
<path fill-rule="evenodd" clip-rule="evenodd" d="M41.6456 7.16037H46.9445C46.9445 4.29585 44.5529 1.98523 41.6456 1.98523C38.7373 1.98523 36.3457 4.29541 36.3457 7.16037C36.3457 10.0715 38.7373 12.3817 41.6456 12.3817C44.5529 12.3817 46.9445 10.0715 46.9445 7.16037H41.6456Z" fill="#E4A369"/>
<path fill-rule="evenodd" clip-rule="evenodd" d="M41.6463 7.16056H46.8519C46.8519 4.34224 44.5536 2.03162 41.6463 2.03162C38.738 2.03162 36.4402 4.34224 36.4402 7.16056C36.4402 10.0255 38.738 12.3357 41.6463 12.3357C44.5536 12.3357 46.8519 10.0255 46.8519 7.16056H41.6463Z" fill="#E4A36A"/>
<path fill-rule="evenodd" clip-rule="evenodd" d="M41.6446 7.16029H46.8029C46.8048 6.49232 46.6727 5.83057 46.4141 5.21307C46.1556 4.59558 45.7757 4.03453 45.2964 3.56218C44.817 3.08983 44.2476 2.7155 43.6209 2.46071C42.9942 2.20592 42.3225 2.0757 41.6446 2.07754C40.9665 2.07552 40.2948 2.20562 39.6679 2.46033C39.0411 2.71505 38.4716 3.08936 37.9921 3.56173C37.5126 4.0341 37.1326 4.59521 36.8741 5.21279C36.6155 5.83037 36.4834 6.49223 36.4854 7.16029C36.4854 9.97906 38.7832 12.2892 41.6446 12.2892C44.5046 12.2892 46.8029 9.97906 46.8029 7.16029H41.6446Z" fill="#E5A56C"/>
<path fill-rule="evenodd" clip-rule="evenodd" d="M41.6431 7.16062H46.7545C46.7545 4.38849 44.4562 2.12451 41.6431 2.12451C38.8286 2.12451 36.5308 4.38849 36.5308 7.16062C36.5308 9.93319 38.8286 12.1972 41.6431 12.1972C44.4562 12.1972 46.7545 9.93319 46.7545 7.16062H41.6431Z" fill="#E5A56C"/>
<path fill-rule="evenodd" clip-rule="evenodd" d="M41.6455 7.16051H46.7096C46.7096 4.43458 44.4122 2.2168 41.6455 2.2168C38.8779 2.2168 36.5801 4.43458 36.5801 7.16051C36.5801 9.93309 38.8779 12.1504 41.6455 12.1504C44.4122 12.1504 46.7096 9.93309 46.7096 7.16051H41.6455Z" fill="#E5A76E"/>
<path fill-rule="evenodd" clip-rule="evenodd" d="M41.6465 7.16022H46.6173C46.6173 4.48048 44.4132 2.2627 41.6465 2.2627C38.8789 2.2627 36.6753 4.48048 36.6753 7.16022C36.6753 9.8866 38.8794 12.1044 41.6465 12.1044C44.4132 12.1044 46.6173 9.8866 46.6173 7.16022H41.6465V7.16022Z" fill="#E5A770"/>
<path fill-rule="evenodd" clip-rule="evenodd" d="M41.6445 7.16053H46.5679C46.5679 4.4808 44.3638 2.3092 41.6445 2.3092C38.9238 2.3092 36.7197 4.4808 36.7197 7.16053C36.7197 9.84072 38.9238 12.0123 41.6445 12.0123C44.3643 12.0123 46.5679 9.84072 46.5679 7.16053H41.6445Z" fill="#E6A970"/>
<path fill-rule="evenodd" clip-rule="evenodd" d="M41.6425 7.16073H46.5191C46.5191 4.52718 44.315 2.35559 41.6425 2.35559C38.9687 2.35559 36.7646 4.52718 36.7646 7.16073C36.7646 9.84091 38.9687 11.9659 41.6425 11.9659C44.315 11.9659 46.5191 9.84091 46.5191 7.16073H41.6425Z" fill="#E6A972"/>
<path fill-rule="evenodd" clip-rule="evenodd" d="M41.6455 7.16074H46.4756C46.4756 4.5734 44.3179 2.448 41.6455 2.448C38.9716 2.448 36.8145 4.5734 36.8145 7.16074C36.8136 7.78604 36.9379 8.40537 37.1804 8.98323C37.4228 9.5611 37.7787 10.0861 38.2274 10.5283C38.6762 10.9704 39.2092 11.3209 39.7957 11.5598C40.3822 11.7986 41.0108 11.9211 41.6455 11.9201C42.28 11.921 42.9085 11.7984 43.495 11.5595C44.0814 11.3206 44.6142 10.9701 45.0629 10.528C45.5116 10.0858 45.8673 9.56083 46.1097 8.98303C46.3521 8.40522 46.4765 7.78597 46.4756 7.16074H41.6455Z" fill="#E6AB74"/>
<path fill-rule="evenodd" clip-rule="evenodd" d="M41.6464 7.16047H46.3823C46.384 6.54722 46.2626 5.93969 46.0252 5.3728C45.7878 4.80591 45.4391 4.29084 44.999 3.85718C44.5589 3.42353 44.0361 3.07985 43.4608 2.84589C42.8854 2.61194 42.2688 2.49232 41.6464 2.49392C41.0239 2.49214 40.4072 2.61163 39.8317 2.8455C39.2561 3.07938 38.7332 3.42303 38.293 3.8567C37.8528 4.29038 37.5039 4.80551 37.2664 5.37249C37.0289 5.93947 36.9075 6.54711 36.9092 7.16047C36.9092 9.74826 39.0195 11.8737 41.6464 11.8737C44.272 11.8737 46.3823 9.74826 46.3823 7.16047H41.6464Z" fill="#E6AB75"/>
<path fill-rule="evenodd" clip-rule="evenodd" d="M41.6444 7.16064H46.3334C46.3334 4.61904 44.2236 2.54028 41.6444 2.54028C39.0648 2.54028 36.9541 4.61949 36.9541 7.16064C36.9541 9.74843 39.0644 11.7814 41.6444 11.7814C42.2609 11.7835 42.8716 11.6654 43.4415 11.4339C44.0114 11.2024 44.5292 10.8621 44.9651 10.4326C45.4009 10.0031 45.7462 9.49288 45.9811 8.93133C46.2159 8.36978 46.3357 7.76799 46.3334 7.16064H41.6444Z" fill="#E7AD77"/>
<path fill-rule="evenodd" clip-rule="evenodd" d="M41.6425 7.16034H46.285C46.285 4.66539 44.2216 2.58618 41.6425 2.58618C39.0629 2.58618 36.999 4.66539 36.999 7.16034C36.999 9.70194 39.0624 11.735 41.6425 11.735C42.2529 11.7374 42.8578 11.6208 43.4222 11.3918C43.9866 11.1628 44.4995 10.8259 44.9311 10.4006C45.3627 9.97532 45.7045 9.47002 45.9369 8.91388C46.1693 8.35774 46.2876 7.76177 46.285 7.16034H41.6425Z" fill="#E7AD77"/>
<path fill-rule="evenodd" clip-rule="evenodd" d="M41.6454 7.16069H46.2411C46.2411 4.66573 44.1777 2.67847 41.6454 2.67847C39.1127 2.67847 37.0488 4.66573 37.0488 7.16069C37.0488 9.65609 39.1122 11.6891 41.6454 11.6891C44.1772 11.6891 46.2411 9.65609 46.2411 7.16069H41.6454Z" fill="#E8AF79"/>
<path fill-rule="evenodd" clip-rule="evenodd" d="M41.6469 7.16055H46.1483C46.1483 4.71179 44.1318 2.72498 41.6469 2.72498C39.161 2.72498 37.144 4.71179 37.144 7.16055C37.144 9.65596 39.1606 11.6428 41.6469 11.6428C44.1318 11.6428 46.1483 9.65596 46.1483 7.16055H41.6469Z" fill="#E8AF7B"/>
<path fill-rule="evenodd" clip-rule="evenodd" d="M41.6442 7.1607H46.0992C46.0992 4.75814 44.1291 2.77087 41.6442 2.77087C39.1583 2.77087 37.1882 4.75814 37.1882 7.1607C37.1882 9.60947 39.1579 11.5505 41.6442 11.5505C44.1291 11.5505 46.0992 9.60992 46.0992 7.1607H41.6442Z" fill="#E8B17B"/>
<path fill-rule="evenodd" clip-rule="evenodd" d="M41.6424 7.16045H46.0506C46.0512 6.58993 45.9376 6.0249 45.7162 5.49769C45.4949 4.97048 45.1702 4.49146 44.7608 4.08804C44.3513 3.68462 43.8652 3.36473 43.3301 3.14667C42.795 2.92861 42.2215 2.81667 41.6424 2.81726C41.0633 2.81656 40.4897 2.92841 39.9545 3.14641C39.4193 3.36441 38.933 3.68429 38.5235 4.08772C38.114 4.49115 37.7892 4.97022 37.5678 5.49748C37.3464 6.02475 37.2328 6.58986 37.2334 7.16045C37.2327 7.73109 37.3463 8.29625 37.5677 8.82357C37.789 9.35088 38.1138 9.83 38.5233 10.2335C38.9329 10.637 39.4192 10.9569 39.9544 11.1749C40.4897 11.3929 41.0633 11.5048 41.6424 11.5041C42.2215 11.5046 42.795 11.3926 43.3301 11.1745C43.8652 10.9564 44.3514 10.6365 44.7608 10.233C45.1703 9.82957 45.4949 9.35052 45.7162 8.82329C45.9376 8.29606 46.0512 7.731 46.0506 7.16045H41.6424V7.16045Z" fill="#E8B17D"/>
<path fill-rule="evenodd" clip-rule="evenodd" d="M41.6458 7.16047H46.0066C46.0066 4.80409 44.0375 2.90967 41.6458 2.90967C39.2538 2.90967 37.2837 4.80409 37.2837 7.16047C37.2837 9.51684 39.2533 11.4579 41.6458 11.4579C44.0375 11.4579 46.0066 9.51729 46.0066 7.16047H41.6458Z" fill="#E8B17E"/>
<path fill-rule="evenodd" clip-rule="evenodd" d="M41.6469 7.16069H45.9143C45.9143 4.85051 43.9911 2.95608 41.6469 2.95608C41.0859 2.95418 40.5301 3.06164 40.0114 3.27227C39.4928 3.48289 39.0215 3.79252 38.6248 4.18333C38.2282 4.57413 37.9138 5.03839 37.7 5.54938C37.4862 6.06036 37.3771 6.60798 37.3789 7.16069C37.3789 9.51706 39.2548 11.4115 41.6469 11.4115C43.9911 11.4115 45.9143 9.51706 45.9143 7.16069H41.6469Z" fill="#E9B381"/>
<path fill-rule="evenodd" clip-rule="evenodd" d="M41.6444 7.1604H45.8645C45.8669 6.6137 45.7593 6.07195 45.5481 5.56642C45.3369 5.06088 45.0261 4.60156 44.6338 4.21496C44.2414 3.82836 43.7753 3.52213 43.2622 3.31394C42.7491 3.10576 42.1993 2.99974 41.6444 3.00199C41.0895 2.99968 40.5396 3.10565 40.0264 3.31381C39.5133 3.52196 39.047 3.82817 38.6546 4.21477C38.2622 4.60137 37.9514 5.06071 37.74 5.56628C37.5287 6.07185 37.4211 6.61364 37.4234 7.1604C37.4211 7.70718 37.5287 8.249 37.74 8.75459C37.9513 9.26019 38.2622 9.71955 38.6546 10.1062C39.047 10.4928 39.5132 10.7991 40.0264 11.0073C40.5395 11.2155 41.0895 11.3215 41.6444 11.3193C42.1993 11.3215 42.7492 11.2154 43.2622 11.0071C43.7753 10.7989 44.2415 10.4926 44.6338 10.106C45.0261 9.71936 45.3369 9.26002 45.5481 8.75445C45.7593 8.24889 45.8669 7.70712 45.8645 7.1604H41.6444Z" fill="#E9B381"/>
<path fill-rule="evenodd" clip-rule="evenodd" d="M41.6424 7.16056H45.8157C45.8157 4.89657 43.9398 3.04834 41.6424 3.04834C39.3441 3.04834 37.4683 4.89657 37.4683 7.16056C37.4683 9.42454 39.3441 11.2728 41.6424 11.2728C43.9398 11.2728 45.8157 9.42454 45.8157 7.16056H41.6424V7.16056Z" fill="#E9B583"/>
<path fill-rule="evenodd" clip-rule="evenodd" d="M41.6458 7.16057H45.7726C45.7726 4.94278 43.8959 3.14075 41.6458 3.14075C39.3944 3.14075 37.5186 4.94278 37.5186 7.16057C37.5186 9.42456 39.3944 11.2266 41.6458 11.2266C43.8959 11.2266 45.7726 9.42456 45.7726 7.16057H41.6458V7.16057Z" fill="#E9B584"/>
<path fill-rule="evenodd" clip-rule="evenodd" d="M41.6468 7.16028H45.6794C45.6794 4.98868 43.8968 3.18665 41.6468 3.18665C39.3954 3.18665 37.6133 4.98868 37.6133 7.16028C37.6133 9.37807 39.3954 11.1801 41.6468 11.1801C43.8968 11.1801 45.6794 9.37807 45.6794 7.16028H41.6468Z" fill="#EAB786"/>
<path fill-rule="evenodd" clip-rule="evenodd" d="M41.6451 7.16047H45.6308C45.6313 6.64462 45.5285 6.13373 45.3284 5.65705C45.1282 5.18037 44.8347 4.74724 44.4645 4.38246C44.0943 4.01768 43.6547 3.72839 43.1709 3.53116C42.6871 3.33393 42.1686 3.23262 41.6451 3.23303C39.4405 3.23303 37.6584 4.98888 37.6584 7.16047C37.6584 9.33207 39.4405 11.0879 41.6451 11.0879C42.1686 11.0883 42.6871 10.987 43.1709 10.7898C43.6547 10.5926 44.0943 10.3033 44.4645 9.93848C44.8347 9.5737 45.1282 9.14057 45.3284 8.66389C45.5285 8.18721 45.6313 7.67632 45.6308 7.16047H41.6451Z" fill="#EAB788"/>
<path fill-rule="evenodd" clip-rule="evenodd" d="M41.6424 7.16017H45.5807C45.5807 5.03477 43.7991 3.27893 41.6424 3.27893C39.4847 3.27893 37.7026 5.03477 37.7026 7.16017C37.7026 9.33177 39.4847 11.0414 41.6424 11.0414C43.7991 11.0414 45.5807 9.33177 45.5807 7.16017H41.6424Z" fill="#EBB989"/>
<path fill-rule="evenodd" clip-rule="evenodd" d="M41.6458 7.16068H45.5382C45.5382 5.08147 43.803 3.37183 41.6458 3.37183C39.4882 3.37183 37.7529 5.08147 37.7529 7.16068C37.7517 7.66469 37.8515 8.16398 38.0467 8.62986C38.2419 9.09574 38.5286 9.51903 38.8903 9.8754C39.2521 10.2318 39.6817 10.5142 40.1546 10.7065C40.6275 10.8987 41.1342 10.997 41.6458 10.9957C42.1573 10.997 42.664 10.8986 43.1368 10.7063C43.6096 10.514 44.0392 10.2316 44.4009 9.87524C44.7626 9.51888 45.0493 9.09561 45.2445 8.62976C45.4396 8.16391 45.5394 7.66465 45.5382 7.16068H41.6458V7.16068Z" fill="#EBB98A"/>
<path fill-rule="evenodd" clip-rule="evenodd" d="M41.6467 7.16041H45.4449C45.447 6.66838 45.3502 6.1808 45.1601 5.72581C44.97 5.27082 44.6903 4.85743 44.3372 4.50948C43.9841 4.16154 43.5645 3.88592 43.1028 3.69855C42.641 3.51117 42.1461 3.41574 41.6467 3.41776C39.536 3.41776 37.8477 5.08076 37.8477 7.16041C37.8477 9.24007 39.536 10.9497 41.6467 10.9497C43.7566 10.9497 45.4449 9.24007 45.4449 7.16041H41.6467Z" fill="#EBBB8C"/>
<path fill-rule="evenodd" clip-rule="evenodd" d="M41.645 7.1607H45.3958C45.3958 5.12769 43.7084 3.46423 41.645 3.46423C39.5811 3.46423 37.8928 5.12724 37.8928 7.1607C37.8928 9.2399 39.5811 10.8576 41.645 10.8576C43.7084 10.8576 45.3958 9.24035 45.3958 7.1607H41.645Z" fill="#EBBB8C"/>
<path fill-rule="evenodd" clip-rule="evenodd" d="M41.6424 7.1604H45.3472C45.3472 5.17359 43.7062 3.51013 41.6424 3.51013C39.5785 3.51013 37.9371 5.17314 37.9371 7.1604C37.9342 7.6406 38.028 8.11659 38.2132 8.56078C38.3984 9.00497 38.6712 9.40853 39.0159 9.74807C39.3606 10.0876 39.7702 10.3564 40.221 10.5388C40.6719 10.7212 41.155 10.8136 41.6424 10.8107C42.1297 10.8136 42.6128 10.7212 43.0637 10.5388C43.5145 10.3563 43.9241 10.0876 44.2687 9.74804C44.6133 9.4085 44.8861 9.00494 45.0712 8.56075C45.2564 8.11656 45.3502 7.64058 45.3472 7.1604H41.6424Z" fill="#ECBD8F"/>
<path fill-rule="evenodd" clip-rule="evenodd" d="M41.6457 7.1603H45.3032C45.3032 5.17348 43.6622 3.60242 41.6457 3.60242C39.6287 3.60242 37.9873 5.17303 37.9873 7.1603C37.9873 9.14756 39.6287 10.7648 41.6457 10.7648C43.6622 10.7648 45.3032 9.14756 45.3032 7.1603H41.6457Z" fill="#ECBD90"/>
<path fill-rule="evenodd" clip-rule="evenodd" d="M41.6467 7.16049H45.21C45.2102 6.69934 45.1182 6.24266 44.9392 5.81655C44.7602 5.39045 44.4978 5.00327 44.1669 4.67714C43.836 4.35102 43.4431 4.09234 43.0106 3.91589C42.5782 3.73945 42.1147 3.64869 41.6467 3.6488C41.1785 3.64857 40.7149 3.73924 40.2824 3.91563C39.8498 4.09202 39.4568 4.35067 39.1257 4.6768C38.7947 5.00293 38.5321 5.39014 38.353 5.81631C38.1739 6.24248 38.0819 6.69924 38.082 7.16049C38.082 9.10111 39.6766 10.7184 41.6467 10.7184C43.6159 10.7184 45.21 9.10111 45.21 7.16049H41.6467Z" fill="#ECBF93"/>
<path fill-rule="evenodd" clip-rule="evenodd" d="M41.645 7.16019H45.1623C45.1623 5.26577 43.5673 3.6947 41.645 3.6947C39.6749 3.6947 38.1272 5.26577 38.1272 7.16019C38.1272 9.10081 39.6749 10.6257 41.645 10.6257C43.5673 10.6257 45.1623 9.10081 45.1623 7.16019H41.645Z" fill="#ECBF93"/>
<path fill-rule="evenodd" clip-rule="evenodd" d="M41.6476 7.16051H45.1176C45.1176 5.26608 43.5699 3.74121 41.6476 3.74121C39.7244 3.74121 38.1768 5.26563 38.1768 7.16051C38.1768 9.05538 39.7244 10.5798 41.6476 10.5798C42.1036 10.5808 42.5554 10.4931 42.9768 10.3216C43.3983 10.1501 43.7813 9.89825 44.1037 9.58053C44.4261 9.26281 44.6817 8.88547 44.8557 8.47017C45.0297 8.05487 45.1187 7.6098 45.1176 7.16051H41.6476Z" fill="#EDC195"/>
<path fill-rule="evenodd" clip-rule="evenodd" d="M41.6457 7.16057H45.0688C45.0688 5.31233 43.522 3.83411 41.6457 3.83411C39.7693 3.83411 38.2217 5.31278 38.2217 7.16057C38.2217 9.0088 39.7693 10.5337 41.6457 10.5337C43.5215 10.5337 45.0688 9.0088 45.0688 7.16057H41.6457Z" fill="#EDC196"/>
<path fill-rule="evenodd" clip-rule="evenodd" d="M41.6466 7.16072H44.9759C44.9759 5.35868 43.4752 3.88 41.6466 3.88C39.8172 3.88 38.3164 5.35868 38.3164 7.16072C38.3164 9.00895 39.8172 10.4876 41.6466 10.4876C43.4756 10.4876 44.9759 9.00895 44.9759 7.16072H41.6466V7.16072Z" fill="#EEC397"/>
<path fill-rule="evenodd" clip-rule="evenodd" d="M41.6447 7.16046H44.9272C44.9272 5.40462 43.4737 3.92639 41.6447 3.92639C39.8153 3.92639 38.3614 5.40507 38.3614 7.16046C38.3587 7.58599 38.4418 8.00781 38.6059 8.40146C38.77 8.7951 39.0117 9.15273 39.3172 9.45361C39.6226 9.7545 39.9856 9.99264 40.3851 10.1542C40.7847 10.3158 41.2128 10.3977 41.6447 10.395C42.0766 10.3976 42.5046 10.3157 42.9041 10.1541C43.3036 9.99247 43.6665 9.75431 43.9718 9.45343C44.2772 9.15255 44.5189 8.79493 44.6828 8.40132C44.8468 8.00771 44.9299 7.58594 44.9272 7.16046H41.6447Z" fill="#EEC399"/>
<path fill-rule="evenodd" clip-rule="evenodd" d="M41.6476 7.16061H44.8827C44.8827 5.40477 43.4292 3.97229 41.6476 3.97229C39.865 3.97229 38.4111 5.40477 38.4111 7.16061C38.4111 8.9169 39.865 10.3489 41.6476 10.3489C43.4292 10.3489 44.8827 8.9169 44.8827 7.16061H41.6476Z" fill="#EEC59B"/>
<path fill-rule="evenodd" clip-rule="evenodd" d="M41.6451 7.16063H44.8333C44.8333 5.45098 43.3799 4.0647 41.6451 4.0647C39.9095 4.0647 38.4556 5.45098 38.4556 7.16063C38.4556 8.91692 39.9095 10.3028 41.6451 10.3028C43.3799 10.3028 44.8333 8.91692 44.8333 7.16063H41.6451Z" fill="#EEC69D"/>
<path fill-rule="evenodd" clip-rule="evenodd" d="M41.6466 7.16033H44.7415C44.7415 5.49733 43.3813 4.1106 41.6466 4.1106C39.9109 4.1106 38.5508 5.49688 38.5508 7.16033C38.5508 8.86998 39.9109 10.2563 41.6466 10.2563C43.3813 10.2563 44.7415 8.86998 44.7415 7.16033H41.6466Z" fill="#EEC69F"/>
<path fill-rule="evenodd" clip-rule="evenodd" d="M41.6446 7.16053H44.6922C44.6929 6.76596 44.6147 6.37512 44.4618 6.01043C44.3089 5.64573 44.0845 5.31436 43.8013 5.03531C43.5182 4.75627 43.182 4.53504 42.8119 4.38431C42.4418 4.23359 42.0451 4.15634 41.6446 4.15699C41.244 4.15616 40.8472 4.23328 40.477 4.38393C40.1067 4.53457 39.7703 4.75577 39.487 5.03483C39.2037 5.3139 38.9792 5.64533 38.8262 6.01012C38.6733 6.3749 38.5949 6.76585 38.5957 7.16053C38.5949 7.55522 38.6733 7.94617 38.8262 8.31096C38.9792 8.67574 39.2037 9.00717 39.487 9.28623C39.7703 9.5653 40.1067 9.7865 40.477 9.93714C40.8472 10.0878 41.244 10.1649 41.6446 10.1641C42.0451 10.1648 42.4418 10.0876 42.8119 9.93688C43.1821 9.78618 43.5183 9.56495 43.8015 9.28589C44.0846 9.00683 44.3091 8.67544 44.4619 8.31071C44.6148 7.94599 44.693 7.55512 44.6922 7.16053H41.6446V7.16053Z" fill="#EFC89F"/>
<path fill-rule="evenodd" clip-rule="evenodd" d="M41.6475 7.16027H44.6491C44.6491 5.54346 43.289 4.20337 41.6475 4.20337C40.0056 4.20337 38.6455 5.54346 38.6455 7.16027C38.6443 7.54901 38.7211 7.93414 38.8716 8.29351C39.022 8.65287 39.2431 8.97938 39.5221 9.25423C39.8011 9.52909 40.1326 9.74688 40.4973 9.89505C40.8621 10.0432 41.253 10.1189 41.6475 10.1176C42.0421 10.1188 42.4329 10.0431 42.7976 9.89492C43.1623 9.74672 43.4937 9.52893 43.7727 9.25408C44.0516 8.97923 44.2727 8.65274 44.4231 8.2934C44.5735 7.93406 44.6503 7.54897 44.6491 7.16027H41.6475Z" fill="#EFC8A1"/>
<path fill-rule="evenodd" clip-rule="evenodd" d="M41.6456 7.16029H44.5998C44.5998 5.58967 43.2866 4.29578 41.6456 4.29578C40.0037 4.29578 38.6905 5.58967 38.6905 7.16029C38.6888 7.54308 38.7642 7.92239 38.9121 8.27634C39.06 8.63029 39.2777 8.95187 39.5524 9.22252C39.8271 9.49317 40.1536 9.70754 40.5128 9.85324C40.8721 9.99895 41.2571 10.0731 41.6456 10.0714C42.034 10.073 42.4189 9.99874 42.7781 9.85298C43.1372 9.70722 43.4636 9.49284 43.7382 9.2222C44.0128 8.95156 44.2304 8.63002 44.3783 8.27613C44.5261 7.92224 44.6015 7.543 44.5998 7.16029H41.6456Z" fill="#EFCAA3"/>
<path fill-rule="evenodd" clip-rule="evenodd" d="M41.6461 7.16054H44.5061C44.5086 6.78979 44.4363 6.42225 44.2934 6.07924C44.1506 5.73623 43.94 5.42459 43.674 5.1624C43.4079 4.90022 43.0916 4.69271 42.7435 4.55191C42.3954 4.41111 42.0224 4.33984 41.6461 4.34222C41.2697 4.33978 40.8966 4.41101 40.5484 4.55176C40.2002 4.69252 39.8838 4.90001 39.6176 5.16219C39.3514 5.42437 39.1407 5.73602 38.9977 6.07907C38.8548 6.42211 38.7824 6.78971 38.7847 7.16054C38.7847 8.73161 40.0511 10.0255 41.6461 10.0255C43.2402 10.0255 44.5061 8.73206 44.5061 7.16054H41.6461Z" fill="#EFCAA3"/>
<path fill-rule="evenodd" clip-rule="evenodd" d="M41.6446 7.16019H44.4577C44.4577 5.63532 43.1918 4.38806 41.6446 4.38806C40.0964 4.38806 38.8301 5.63532 38.8301 7.16019C38.8301 8.68506 40.0964 9.93276 41.6446 9.93276C43.1913 9.93276 44.4577 8.68506 44.4577 7.16019H41.6446V7.16019Z" fill="#F0CCA6"/>
<path fill-rule="evenodd" clip-rule="evenodd" d="M41.6477 7.1605H44.4144C44.4144 5.68227 43.1476 4.43457 41.6477 4.43457C40.0996 4.43457 38.8801 5.68227 38.8801 7.1605C38.8801 8.68537 40.0996 9.88688 41.6477 9.88688C43.1476 9.88688 44.4144 8.68537 44.4144 7.1605H41.6477Z" fill="#F0CCA8"/>
<path fill-rule="evenodd" clip-rule="evenodd" d="M41.6455 7.16039H44.3653C44.3653 5.68217 43.1454 4.52686 41.6455 4.52686C40.1447 4.52686 38.9248 5.68217 38.9248 7.16039C38.9253 7.87115 39.2121 8.55266 39.7222 9.0552C40.2324 9.55775 40.9241 9.84022 41.6455 9.84058C42.3667 9.83999 43.0583 9.5574 43.5682 9.05489C44.0781 8.55237 44.3648 7.871 44.3653 7.16039H41.6455Z" fill="#F1CEAA"/>
<path fill-rule="evenodd" clip-rule="evenodd" d="M41.646 7.16059H44.2716C44.2722 6.82067 44.2048 6.48397 44.0731 6.16979C43.9413 5.85562 43.748 5.57015 43.504 5.32977C43.2601 5.08939 42.9704 4.89883 42.6516 4.769C42.3327 4.63918 41.991 4.57266 41.646 4.57325C40.1916 4.57325 39.019 5.72811 39.019 7.16059C39.019 8.59307 40.1916 9.79458 41.646 9.79458C43.0994 9.79458 44.2716 8.59307 44.2716 7.16059H41.646Z" fill="#F1CEAA"/>
<path fill-rule="evenodd" clip-rule="evenodd" d="M41.6443 7.16025H44.2235C44.2235 5.77441 43.0509 4.61865 41.6443 4.61865C40.2368 4.61865 39.0647 5.77397 39.0647 7.16025C39.0637 7.4943 39.1297 7.82526 39.259 8.13407C39.3883 8.44289 39.5782 8.72347 39.818 8.95968C40.0577 9.19589 40.3425 9.38306 40.6559 9.51043C40.9694 9.63781 41.3053 9.70286 41.6443 9.70185C41.9833 9.7028 42.3192 9.63771 42.6325 9.51031C42.9459 9.38291 43.2307 9.19573 43.4703 8.95952C43.71 8.72332 43.9 8.44275 44.0292 8.13397C44.1585 7.82518 44.2245 7.49426 44.2235 7.16025H41.6443Z" fill="#F1D0AD"/>
<path fill-rule="evenodd" clip-rule="evenodd" d="M41.6475 7.1606H44.1793C44.1793 5.82051 43.0536 4.66565 41.6475 4.66565C40.24 4.66565 39.1148 5.82051 39.1148 7.1606C39.1133 7.48871 39.1778 7.81384 39.3046 8.11724C39.4314 8.42064 39.6179 8.6963 39.8534 8.9283C40.0888 9.16031 40.3686 9.34406 40.6765 9.46896C40.9845 9.59386 41.3145 9.65744 41.6475 9.65601C41.9804 9.65732 42.3103 9.59366 42.6181 9.4687C42.926 9.34375 43.2056 9.15997 43.441 8.92798C43.6764 8.69599 43.8628 8.42037 43.9895 8.11703C44.1162 7.81369 44.1807 7.48863 44.1793 7.1606H41.6475V7.1606Z" fill="#F1D0AE"/>
<path fill-rule="evenodd" clip-rule="evenodd" d="M41.6453 7.1605H44.1302C44.1302 5.82041 43.0045 4.75793 41.6453 4.75793C40.2851 4.75793 39.1594 5.82041 39.1594 7.1605C39.1594 8.50059 40.2851 9.60926 41.6453 9.60926C43.0045 9.60926 44.1302 8.50014 44.1302 7.1605H41.6453Z" fill="#F2D2B1"/>
<path fill-rule="evenodd" clip-rule="evenodd" d="M41.646 7.16021H44.0376C44.0376 5.86676 42.9583 4.80383 41.646 4.80383C40.3327 4.80383 39.2539 5.86676 39.2539 7.16021C39.2539 8.5003 40.3332 9.56277 41.646 9.56277C42.9583 9.56277 44.0376 8.49985 44.0376 7.16021H41.646Z" fill="#F2D2B3"/>
<path fill-rule="evenodd" clip-rule="evenodd" d="M41.6442 7.16052H43.9885C43.9885 5.91282 42.9561 4.85034 41.6442 4.85034C40.331 4.85034 39.2991 5.91282 39.2991 7.16052C39.2991 8.45442 40.3315 9.4707 41.6442 9.4707C42.9566 9.4707 43.9885 8.45397 43.9885 7.16052H41.6442Z" fill="#F3D4B4"/>
<path fill-rule="evenodd" clip-rule="evenodd" d="M41.6474 7.16071H43.9448C43.9439 6.5606 43.7016 5.98529 43.271 5.56091C42.8404 5.13652 42.2565 4.89768 41.6474 4.89673C40.3806 4.89673 39.3491 5.91346 39.3491 7.16071C39.3491 8.40796 40.3806 9.4247 41.6474 9.4247C42.2565 9.42363 42.8402 9.18474 43.2709 8.76038C43.7015 8.33602 43.9438 7.76079 43.9448 7.16071H41.6474Z" fill="#F3D4B5"/>
<path fill-rule="evenodd" clip-rule="evenodd" d="M41.6452 7.16073H43.8952C43.8952 5.95967 42.8638 4.98914 41.6452 4.98914C40.4253 4.98914 39.3938 5.95967 39.3938 7.16073C39.3938 8.40843 40.4257 9.37852 41.6452 9.37852C42.8642 9.37852 43.8952 8.40798 43.8952 7.16073H41.6452Z" fill="#F3D4B7"/>
<path fill-rule="evenodd" clip-rule="evenodd" d="M41.6469 7.16044H43.8036C43.8044 6.88115 43.7492 6.60447 43.6411 6.34628C43.533 6.0881 43.3741 5.85351 43.1737 5.656C42.9733 5.45849 42.7352 5.30196 42.4732 5.19539C42.2112 5.08883 41.9304 5.03433 41.6469 5.03504C41.3634 5.03421 41.0824 5.08862 40.8203 5.19514C40.5582 5.30165 40.32 5.45816 40.1195 5.65568C39.919 5.85321 39.7601 6.08783 39.6519 6.34607C39.5438 6.60432 39.4885 6.88108 39.4893 7.16044C39.4893 8.36195 40.4274 9.33204 41.6469 9.33204C42.8659 9.33204 43.8036 8.3615 43.8036 7.16044H41.6469Z" fill="#F3D6B8"/>
<path fill-rule="evenodd" clip-rule="evenodd" d="M41.6442 7.16064H43.754C43.7552 6.88732 43.7014 6.61648 43.5958 6.36374C43.4902 6.11099 43.3348 5.88136 43.1387 5.68807C42.9425 5.49478 42.7095 5.34166 42.453 5.23754C42.1965 5.13342 41.9216 5.08037 41.6442 5.08144C40.4716 5.08144 39.5334 6.00577 39.5334 7.16064C39.5334 8.3155 40.4716 9.23985 41.6442 9.23985C41.9216 9.24091 42.1965 9.18786 42.453 9.08374C42.7095 8.97963 42.9425 8.82651 43.1387 8.63322C43.3348 8.43993 43.4902 8.21029 43.5958 7.95755C43.7014 7.70481 43.7552 7.43396 43.754 7.16064H41.6442Z" fill="#F4D8BA"/>
<path fill-rule="evenodd" clip-rule="evenodd" d="M41.6474 7.16033H43.7108C43.7108 6.05121 42.7726 5.12732 41.6474 5.12732C40.5221 5.12732 39.5835 6.05166 39.5835 7.16033C39.5835 8.31564 40.5221 9.19334 41.6474 9.19334C42.7726 9.19334 43.7108 8.31519 43.7108 7.16033H41.6474Z" fill="#F4D9BC"/>
<path fill-rule="evenodd" clip-rule="evenodd" d="M41.6452 7.16022H43.6617C43.6617 6.0973 42.7709 5.2196 41.6452 5.2196C40.5194 5.2196 39.6282 6.0973 39.6282 7.16022C39.6282 8.26934 40.5194 9.14704 41.6452 9.14704C42.7709 9.14704 43.6617 8.2689 43.6617 7.16022H41.6452V7.16022Z" fill="#F4D9BE"/>
<path fill-rule="evenodd" clip-rule="evenodd" d="M41.6468 7.16054H43.5691C43.5691 6.09762 42.7252 5.26611 41.6468 5.26611C40.5676 5.26611 39.7236 6.09762 39.7236 7.16054C39.7236 8.22346 40.5676 9.10116 41.6468 9.10116C42.7252 9.10116 43.5691 8.22302 43.5691 7.16054H41.6468Z" fill="#F4DBBF"/>
<path fill-rule="evenodd" clip-rule="evenodd" d="M41.6441 7.16073H43.52C43.5186 6.67098 43.3205 6.20171 42.969 5.8554C42.6175 5.5091 42.1412 5.31392 41.6441 5.3125C40.6118 5.3125 39.7678 6.144 39.7678 7.16073C39.7678 8.17746 40.6118 9.00896 41.6441 9.00896C42.1412 9.00754 42.6175 8.81236 42.969 8.46606C43.3205 8.11976 43.5186 7.65048 43.52 7.16073H41.6441Z" fill="#F4DBC0"/>
<path fill-rule="evenodd" clip-rule="evenodd" d="M41.6471 7.16044H43.476C43.476 6.1899 42.6317 5.3584 41.6471 5.3584C40.662 5.3584 39.8176 6.1899 39.8176 7.16044C39.8176 8.17717 40.662 8.96248 41.6471 8.96248C42.6312 8.96248 43.476 8.17717 43.476 7.16044H41.6471Z" fill="#F5DDC3"/>
<path fill-rule="evenodd" clip-rule="evenodd" d="M41.6451 7.16045H43.4267C43.4267 6.23611 42.6292 5.45081 41.6451 5.45081C40.6601 5.45081 39.8625 6.23611 39.8625 7.16045C39.8625 7.62613 40.0503 8.07274 40.3845 8.40202C40.7187 8.73131 41.172 8.9163 41.6446 8.9163C42.1173 8.9163 42.5706 8.73131 42.9048 8.40202C43.239 8.07274 43.4267 7.62613 43.4267 7.16045H41.6451Z" fill="#F5DDC3"/>
<path fill-rule="evenodd" clip-rule="evenodd" d="M41.6463 7.1602H43.3337C43.3337 6.23586 42.5845 5.49719 41.6463 5.49719C40.7081 5.49719 39.9575 6.23631 39.9575 7.1602C39.9575 8.08409 40.7081 8.86985 41.6463 8.86985C42.5845 8.86985 43.3337 8.08454 43.3337 7.1602H41.6463Z" fill="#F6DFC6"/>
<path fill-rule="evenodd" clip-rule="evenodd" d="M41.6443 7.16039H43.2853C43.2853 6.28224 42.5352 5.54358 41.6443 5.54358C40.7526 5.54358 40.0024 6.28269 40.0024 7.16039C40.0024 8.08473 40.7526 8.77765 41.6443 8.77765C42.5352 8.77765 43.2853 8.08473 43.2853 7.16039H41.6443Z" fill="#F6DFC7"/>
<path fill-rule="evenodd" clip-rule="evenodd" d="M41.6471 7.1607H43.2412C43.2412 6.3292 42.5379 5.59009 41.6471 5.59009C40.7553 5.59009 40.0521 6.3292 40.0521 7.1607C40.0503 7.36754 40.0904 7.57265 40.1699 7.76408C40.2494 7.9555 40.3669 8.1294 40.5153 8.27564C40.6638 8.42188 40.8403 8.53753 41.0346 8.61584C41.2289 8.69415 41.4371 8.73356 41.6471 8.73177C41.8569 8.73345 42.065 8.69395 42.2592 8.61558C42.4534 8.53721 42.6298 8.42155 42.7782 8.27532C42.9266 8.12909 43.0439 7.95523 43.1234 7.76387C43.2029 7.5725 43.2429 7.36746 43.2412 7.1607H41.6471Z" fill="#F6E1CA"/>
<path fill-rule="evenodd" clip-rule="evenodd" d="M41.6453 7.1606H43.1921C43.1921 6.3291 42.4888 5.68237 41.6453 5.68237C40.8009 5.68237 40.0972 6.3291 40.0972 7.1606C40.0972 7.99255 40.8004 8.68547 41.6453 8.68547C42.4892 8.68547 43.1921 7.99255 43.1921 7.1606H41.6453Z" fill="#F6E1CC"/>
<path fill-rule="evenodd" clip-rule="evenodd" d="M41.6462 7.16026H43.0997C43.0978 6.78101 42.944 6.41781 42.6719 6.14959C42.3998 5.88137 42.0312 5.72979 41.6462 5.72778C41.2612 5.72955 40.8924 5.88103 40.62 6.14927C40.3477 6.41752 40.1938 6.78085 40.1919 7.16026C40.1919 7.99222 40.8487 8.63894 41.6462 8.63894C42.4428 8.63894 43.0997 7.99222 43.0997 7.16026H41.6462Z" fill="#F7E3CD"/>
<path fill-rule="evenodd" clip-rule="evenodd" d="M41.6443 7.16062H43.0508C43.0508 6.4215 42.4409 5.77478 41.6443 5.77478C40.8468 5.77478 40.2368 6.4215 40.2368 7.16062C40.2368 7.94593 40.8468 8.54691 41.6443 8.54691C42.4409 8.54691 43.0508 7.94593 43.0508 7.16062H41.6443Z" fill="#F7E3CF"/>
<path fill-rule="evenodd" clip-rule="evenodd" d="M41.6433 7.16077H43.0025C43.0022 6.80558 42.859 6.465 42.6042 6.21376C42.3493 5.96252 42.0038 5.82115 41.6433 5.82068C41.2886 5.82972 40.9516 5.97487 40.704 6.2252C40.4564 6.47553 40.3179 6.81124 40.3179 7.16077C40.3179 7.5103 40.4564 7.84601 40.704 8.09634C40.9516 8.34667 41.2886 8.49182 41.6433 8.50086C42.0038 8.50051 42.3494 8.35918 42.6043 8.10791C42.8591 7.85665 43.0024 7.51599 43.0025 7.16077H41.6433Z" fill="#F7E3D0"/>
<path fill-rule="evenodd" clip-rule="evenodd" d="M41.6453 7.16067H42.9576C42.9576 6.46775 42.3486 5.91296 41.6453 5.91296C40.9411 5.91296 40.332 6.46775 40.332 7.16067C40.3317 7.33068 40.3654 7.4991 40.4313 7.65624C40.4971 7.81338 40.5939 7.95616 40.7159 8.07638C40.8379 8.1966 40.9828 8.2919 41.1423 8.35679C41.3018 8.42169 41.4727 8.45492 41.6453 8.45456C41.8178 8.45486 41.9886 8.42159 42.1481 8.35666C42.3075 8.29173 42.4523 8.19641 42.5742 8.07619C42.6962 7.95597 42.7928 7.81321 42.8586 7.6561C42.9244 7.49899 42.958 7.33062 42.9576 7.16067H41.6453Z" fill="#F8E5D1"/>
<path fill-rule="evenodd" clip-rule="evenodd" d="M41.6462 7.16056H42.8652C42.8652 6.51384 42.3495 5.95951 41.6462 5.95951C41.4858 5.95831 41.3267 5.98856 41.1782 6.04848C41.0297 6.10841 40.8947 6.19682 40.7812 6.30857C40.6677 6.42033 40.5779 6.5532 40.517 6.69946C40.456 6.84573 40.4252 7.00246 40.4263 7.16056C40.4263 7.85348 40.942 8.40827 41.6462 8.40827C42.3495 8.40827 42.8652 7.85393 42.8652 7.16056H41.6462Z" fill="#F8E8D4"/>
<path fill-rule="evenodd" clip-rule="evenodd" d="M41.6438 7.16074H42.8155C42.8171 7.00866 42.7879 6.85781 42.7296 6.71699C42.6713 6.57618 42.585 6.44824 42.4759 6.34066C42.3668 6.23307 42.237 6.14802 42.0942 6.09046C41.9513 6.03289 41.7982 6.00399 41.6438 6.00543C41.4894 6.00393 41.3363 6.03279 41.1933 6.09032C41.0504 6.14785 40.9205 6.23289 40.8113 6.34047C40.7021 6.44805 40.6158 6.57601 40.5574 6.71685C40.499 6.8577 40.4697 7.0086 40.4713 7.16074C40.4697 7.31289 40.4989 7.46382 40.5573 7.6047C40.6157 7.74557 40.702 7.87355 40.8112 7.98115C40.9204 8.08874 41.0503 8.17378 41.1932 8.23129C41.3362 8.2888 41.4894 8.31761 41.6438 8.31605C41.7982 8.31749 41.9513 8.28859 42.0942 8.23102C42.237 8.17346 42.3668 8.0884 42.4759 7.98082C42.585 7.87324 42.6713 7.7453 42.7296 7.60449C42.7879 7.46367 42.8171 7.31281 42.8155 7.16074H41.6438Z" fill="#F8E8D6"/>
<path fill-rule="evenodd" clip-rule="evenodd" d="M41.6467 7.16058H42.7724C42.7724 6.56005 42.2558 6.09766 41.6467 6.09766C41.0367 6.09766 40.521 6.5596 40.521 7.16058C40.521 7.76156 41.0367 8.2697 41.6467 8.2697C42.2558 8.2697 42.7724 7.76156 42.7724 7.16058H41.6467Z" fill="#F8E8D8"/>
<path fill-rule="evenodd" clip-rule="evenodd" d="M41.6452 7.16028H42.7236C42.7236 6.60595 42.2069 6.14355 41.6452 6.14355C41.0817 6.14355 40.5659 6.60595 40.5659 7.16028C40.5659 7.76081 41.0817 8.22321 41.6452 8.22321C42.2069 8.22321 42.7236 7.76126 42.7236 7.16028H41.6452Z" fill="#F9EAD9"/>
<path fill-rule="evenodd" clip-rule="evenodd" d="M41.6462 7.16047H42.6303C42.6303 6.65233 42.2079 6.18994 41.6462 6.18994C41.0826 6.18994 40.6611 6.65188 40.6611 7.16047C40.6611 7.71526 41.0826 8.17721 41.6462 8.17721C42.2079 8.17721 42.6303 7.71526 42.6303 7.16047H41.6462Z" fill="#FAECDC"/>
<path fill-rule="evenodd" clip-rule="evenodd" d="M41.6447 7.1603H42.5829C42.582 6.91541 42.4829 6.68078 42.3072 6.50761C42.1314 6.33444 41.8933 6.23679 41.6447 6.23596C41.1281 6.23596 40.7065 6.65171 40.7065 7.1603C40.7065 7.66889 41.1281 8.08464 41.6447 8.08464C41.8933 8.08393 42.1315 7.98632 42.3073 7.81313C42.4831 7.63993 42.5821 7.40523 42.5829 7.1603H41.6447V7.1603Z" fill="#FAECDD"/>
<path fill-rule="evenodd" clip-rule="evenodd" d="M41.6471 7.16024H42.5379C42.5379 6.69829 42.1155 6.32874 41.6471 6.32874C41.1778 6.32874 40.7554 6.69829 40.7554 7.16024C40.7554 7.66838 41.1778 8.03838 41.6471 8.03838C41.7641 8.03838 41.88 8.01567 41.9881 7.97153C42.0962 7.92739 42.1944 7.8627 42.2772 7.78115C42.3599 7.69961 42.4255 7.60279 42.4702 7.49626C42.515 7.38972 42.538 7.27554 42.5379 7.16024H41.6471Z" fill="#FAECDF"/>
<path fill-rule="evenodd" clip-rule="evenodd" d="M41.6452 7.16055H42.4891C42.4891 6.7448 42.114 6.37524 41.6452 6.37524C41.1759 6.37524 40.8008 6.7448 40.8008 7.16055C40.8008 7.62295 41.1759 7.9925 41.6452 7.9925C41.7562 7.99292 41.8661 7.97168 41.9687 7.93001C42.0713 7.88835 42.1646 7.82707 42.243 7.74973C42.3215 7.67239 42.3836 7.58051 42.4259 7.47938C42.4681 7.37826 42.4896 7.2699 42.4891 7.16055H41.6452Z" fill="#FAEEE0"/>
<path fill-rule="evenodd" clip-rule="evenodd" d="M41.6461 7.16025H42.3963C42.3963 6.7445 42.0671 6.42114 41.6461 6.42114C41.2237 6.42114 40.895 6.7445 40.895 7.16025C40.895 7.57601 41.2241 7.94556 41.6461 7.94556C42.0676 7.94556 42.3963 7.57601 42.3963 7.16025H41.6461Z" fill="#FBF0E3"/>
<path fill-rule="evenodd" clip-rule="evenodd" d="M41.6441 7.16045H42.3474C42.3474 6.79089 42.0183 6.46753 41.6441 6.46753C41.269 6.46753 40.9399 6.79089 40.9399 7.16045C40.9399 7.5762 41.269 7.85337 41.6441 7.85337C42.0183 7.85337 42.3474 7.5762 42.3474 7.16045H41.6441Z" fill="#FBF1E5"/>
<path fill-rule="evenodd" clip-rule="evenodd" d="M41.6471 7.16047H42.303C42.303 6.8371 42.0213 6.55994 41.6471 6.55994C41.272 6.55994 40.9902 6.8371 40.9902 7.16047C40.9902 7.53047 41.272 7.80764 41.6471 7.80764C42.0213 7.80764 42.303 7.53047 42.303 7.16047H41.6471Z" fill="#FBF1E7"/>
<path fill-rule="evenodd" clip-rule="evenodd" d="M41.6451 7.16066H42.2542C42.2542 6.8373 41.9733 6.60632 41.6451 6.60632C41.316 6.60632 41.0352 6.8373 41.0352 7.16066C41.0352 7.48447 41.316 7.76119 41.6451 7.76119C41.9733 7.76119 42.2542 7.48402 42.2542 7.16066H41.6451Z" fill="#FCF3E8"/>
<path fill-rule="evenodd" clip-rule="evenodd" d="M41.646 7.16036H42.1618C42.1618 6.88319 41.9269 6.65222 41.646 6.65222C41.3643 6.65222 41.1294 6.88364 41.1294 7.16036C41.1294 7.48417 41.3643 7.71514 41.646 7.71514C41.9269 7.71514 42.1618 7.48417 42.1618 7.16036H41.646Z" fill="#FCF3EA"/>
<path fill-rule="evenodd" clip-rule="evenodd" d="M41.6446 7.16055H42.113C42.113 6.92958 41.9255 6.69861 41.6446 6.69861C41.3628 6.69861 41.1753 6.92958 41.1753 7.16055C41.1753 7.43817 41.3628 7.62295 41.6446 7.62295C41.9255 7.62295 42.113 7.43817 42.113 7.16055H41.6446Z" fill="#FCF5ED"/>
<path fill-rule="evenodd" clip-rule="evenodd" d="M41.647 7.16057H42.0685C42.0685 6.9296 41.881 6.79102 41.647 6.79102C41.4121 6.79102 41.2246 6.9296 41.2246 7.16057C41.2246 7.39154 41.4121 7.57632 41.647 7.57632C41.7025 7.5765 41.7574 7.56587 41.8087 7.54503C41.8599 7.5242 41.9065 7.49357 41.9456 7.45492C41.9848 7.41628 42.0159 7.37037 42.037 7.31985C42.058 7.26933 42.0688 7.2152 42.0685 7.16057H41.647Z" fill="#FCF5EF"/>
<path fill-rule="evenodd" clip-rule="evenodd" d="M41.6451 7.16028H42.0193C42.0193 6.9755 41.8317 6.83691 41.6451 6.83691C41.4576 6.83691 41.27 6.97595 41.27 7.16028C41.27 7.34506 41.4576 7.53028 41.6451 7.53028C41.8317 7.53028 42.0193 7.34506 42.0193 7.16028H41.6451Z" fill="#FDF8F1"/>
<path fill-rule="evenodd" clip-rule="evenodd" d="M41.646 7.16047H41.9269C41.9269 7.02188 41.7862 6.8833 41.646 6.8833C41.5045 6.8833 41.3643 7.02188 41.3643 7.16047C41.3643 7.34525 41.5049 7.48428 41.646 7.48428C41.7867 7.48428 41.9269 7.34525 41.9269 7.16047H41.646Z" fill="#FDF8F3"/>
<path fill-rule="evenodd" clip-rule="evenodd" d="M41.6441 7.16017H41.878C41.878 7.06778 41.7847 6.9292 41.6441 6.9292C41.5025 6.9292 41.4092 7.06778 41.4092 7.16017C41.4092 7.29876 41.5025 7.39114 41.6441 7.39114C41.7847 7.39114 41.878 7.29876 41.878 7.16017H41.6441Z" fill="#FDF8F5"/>
<path fill-rule="evenodd" clip-rule="evenodd" d="M41.6465 7.16068H41.8332C41.8332 7.06829 41.7398 7.02209 41.6465 7.02209C41.5523 7.02209 41.459 7.06829 41.459 7.16068C41.459 7.25307 41.5523 7.34546 41.6465 7.34546C41.7398 7.34546 41.8332 7.25307 41.8332 7.16068H41.6465Z" fill="#FEFBF6"/>
<path fill-rule="evenodd" clip-rule="evenodd" d="M41.645 7.16038H41.7383C41.7383 7.11418 41.691 7.06799 41.645 7.06799C41.5976 7.06799 41.5034 7.11418 41.5034 7.16038C41.5034 7.25277 41.5976 7.29897 41.645 7.29897C41.6914 7.29897 41.7383 7.25277 41.7383 7.16038H41.645Z" fill="#FFFFFB"/>
<path fill-rule="evenodd" clip-rule="evenodd" d="M41.646 7.16057H41.6924C41.6924 7.16057 41.6924 7.11438 41.646 7.11438C41.5986 7.11438 41.5986 7.16057 41.5986 7.16057C41.5986 7.20677 41.5986 7.25296 41.646 7.25296C41.6924 7.25296 41.6924 7.20677 41.6924 7.16057H41.646Z" fill="white"/>
<path fill-rule="evenodd" clip-rule="evenodd" d="M53.8847 9.28627L50.555 0.968994H47.8347L53.1815 13.6756H54.4947L59.9348 0.968994H57.2614L53.8847 9.28627ZM61.0605 13.3527H68.0013V11.2731H63.499V7.94618H67.8133V5.82077H63.499V3.0944H68.0013V0.968994H61.0605V13.3527ZM77.7089 4.61926C77.7089 2.30909 76.1138 0.968994 73.2538 0.968994H69.6423V13.3523H72.0808V8.40812H72.409L75.7857 13.3523H78.7872L74.8479 8.1305C76.6765 7.7614 77.7089 6.51369 77.7089 4.61926V4.61926ZM72.7841 6.69892H72.0808V2.91007H72.831C74.3786 2.91007 75.1752 3.55679 75.1752 4.7583C75.1757 6.00555 74.3791 6.69892 72.7841 6.69892V6.69892ZM0.5584 16.9887V18.0982H1.94903V18.5472H0.5584V20.4802H0.0585938V16.5393H1.99455V16.9887H0.5584ZM4.27736 16.5393H4.77762V20.4802H4.27736V16.5393ZM7.19244 16.35L10.1922 19.4513V16.5393H10.692V20.6425L7.68906 17.543V20.4802H7.19244V16.35V16.35ZM15.3163 19.0436H13.8916L14.6035 17.4479L15.3163 19.0436ZM15.5212 19.493L15.9773 20.4802H16.5153L14.604 16.372L12.6935 20.4802H13.2293L13.6867 19.493H15.5212V19.493ZM18.5159 16.35L21.5189 19.4513V16.5393H22.0191V20.6425L19.0125 17.543V20.4802H18.5159V16.35V16.35ZM27.354 17.2927C27.0695 17.0407 26.6753 16.9057 26.298 16.9057C25.4035 16.9057 24.7189 17.6426 24.7189 18.5158C24.7189 19.3782 25.3967 20.1146 26.2889 20.1146C26.6822 20.1146 27.0572 19.9693 27.3536 19.707V20.2882C27.0333 20.467 26.672 20.5619 26.3039 20.564C25.1609 20.564 24.2177 19.6706 24.2177 18.5306C24.2177 17.3645 25.1673 16.4541 26.3476 16.4541C26.6986 16.4541 27.0532 16.5393 27.3531 16.7218V17.2927H27.354V17.2927ZM29.6496 16.5393H30.1467V20.4802H29.6496V16.5393ZM34.8065 19.0436H33.3822L34.0978 17.4479L34.8065 19.0436V19.0436ZM35.0118 19.493L35.4693 20.4802H36.0051L34.0978 16.372L32.1864 20.4802H32.7208L33.1769 19.493H35.0118V19.493ZM38.5523 20.033H39.7682V20.4802H38.0553V16.5393H38.5523V20.033ZM46.8356 17.2874C46.6908 17.0402 46.4987 16.9151 46.1937 16.9151C45.8746 16.9151 45.5232 17.129 45.5232 17.4753C45.5232 17.7825 45.8355 17.9457 46.0831 18.0395L46.3676 18.1502C46.9375 18.3687 47.3618 18.6781 47.3618 19.3361C47.3618 20.0532 46.7982 20.564 46.0831 20.564C45.4349 20.564 44.931 20.0945 44.8482 19.4616L45.3512 19.358C45.3448 19.7908 45.6953 20.1048 46.1227 20.1048C46.5538 20.1048 46.8606 19.7505 46.8606 19.3361C46.8606 18.9136 46.5165 18.7297 46.1723 18.5875L45.8974 18.4741C45.4395 18.2803 45.0262 18.0247 45.0262 17.4753C45.0262 16.8366 45.5988 16.4541 46.2051 16.4541C46.6489 16.4541 47.0158 16.6698 47.232 17.0505L46.8356 17.2874V17.2874ZM49.62 16.5393H51.7704V16.9887H50.1203V18.0933H51.7253V18.5422H50.1203V20.033H51.7704V20.4802H49.62V16.5393V16.5393ZM54.6021 16.9783H54.73C55.228 16.9783 55.8207 17.0671 55.8207 17.6852C55.8207 18.3117 55.2658 18.405 54.7574 18.405H54.6017V16.9783H54.6021V16.9783ZM55.3277 18.7669C55.9058 18.6979 56.2877 18.2287 56.2877 17.6632C56.2877 17.2873 56.0956 16.9151 55.7606 16.7214C55.4433 16.5442 55.061 16.5393 54.7073 16.5393H54.1028V20.4802H54.6026V18.8149H54.8079L55.9859 20.4802H56.5895L55.3277 18.7669V18.7669ZM60.0167 19.4563L61.2052 16.5393H61.7528L60.0167 20.6914L58.2774 16.5393H58.8241L60.0167 19.4563ZM63.7898 16.5393H64.2892V20.4802H63.7898V16.5393ZM69.6683 17.2927C69.3801 17.0407 68.9855 16.9057 68.6067 16.9057C67.7132 16.9057 67.0286 17.6426 67.0286 18.5158C67.0286 19.3782 67.7059 20.1146 68.5976 20.1146C68.9914 20.1146 69.3701 19.9693 69.6683 19.707V20.2882C69.3469 20.4667 68.9847 20.5616 68.6158 20.564C67.476 20.564 66.5283 19.6706 66.5283 18.5306C66.5283 17.3645 67.4824 16.4541 68.6577 16.4541C69.0087 16.4541 69.3637 16.5393 69.6687 16.7218V17.2927H69.6683V17.2927ZM71.9725 16.5393H74.1224V16.9887H72.4732V18.0933H74.075V18.5422H72.4732V20.033H74.1224V20.4802H71.9725V16.5393V16.5393ZM78.2278 17.2874C78.0821 17.0402 77.8909 16.9151 77.5887 16.9151C77.2714 16.9151 76.92 17.129 76.92 17.4753C76.92 17.7825 77.2295 17.9457 77.4767 18.0395L77.7658 18.1502C78.3311 18.3687 78.7554 18.6781 78.7554 19.3361C78.7554 20.0532 78.1927 20.564 77.4767 20.564C76.8312 20.564 76.3237 20.0945 76.2427 19.4616L76.7443 19.358C76.7379 19.7908 77.0912 20.1048 77.5195 20.1048C77.9497 20.1048 78.2583 19.7505 78.2583 19.3361C78.2583 18.9136 77.9105 18.7297 77.5673 18.5875L77.2919 18.4741C76.834 18.2803 76.4207 18.0247 76.4207 17.4753C76.4207 16.8366 76.9942 16.4541 77.5996 16.4541C78.0434 16.4541 78.4112 16.6698 78.6302 17.0505L78.2278 17.2874V17.2874ZM79.1418 2.06735C79.1418 2.16243 79.0758 2.21266 78.942 2.21266H78.8965V1.92877H78.9452C79.0781 1.92921 79.1418 1.97407 79.1418 2.06735ZM79.5342 2.81768L79.1696 2.3665C79.3253 2.32703 79.4149 2.21491 79.4149 2.06062C79.4149 1.84714 79.2629 1.7265 78.9925 1.7265H78.6397V2.81768H78.901V2.3952L79.2115 2.81768H79.5342ZM79.9999 2.27007C79.9999 1.74892 79.5697 1.31927 79.0476 1.31927C78.9205 1.31844 78.7945 1.34245 78.677 1.38991C78.5594 1.43737 78.4525 1.50733 78.3625 1.59576C78.2726 1.68419 78.2013 1.78931 78.1529 1.90506C78.1044 2.0208 78.0798 2.14487 78.0803 2.27007C78.0803 2.79974 78.5123 3.22222 79.0476 3.22222C79.5697 3.22177 79.9999 2.79256 79.9999 2.27007ZM79.805 2.27276C79.805 2.70062 79.4636 3.05134 79.043 3.05134C78.6197 3.05134 78.2715 2.70242 78.2715 2.27276C78.2715 1.83817 78.6165 1.49283 79.043 1.49283C79.4636 1.49283 79.805 1.84355 79.805 2.27276Z" fill="white"/>
</svg>
