<svg width="40" height="21" viewBox="0 0 40 21" fill="none" xmlns="http://www.w3.org/2000/svg">
<path fill-rule="evenodd" clip-rule="evenodd" d="M39.5639 8.09961C39.1299 6.84052 38.3742 5.64856 37.3497 4.62196C36.325 3.59519 35.0311 2.73396 33.6811 2.09646C32.3312 1.45895 30.925 1.04554 29.9132 0.832424C28.9019 0.619313 28.3001 0.711143 27.6918 0.711143H13.119C12.7231 0.711143 12.3289 0.711326 11.3167 0.906693C10.3045 1.10206 8.6761 1.46389 7.21906 2.08329C5.76226 2.70268 4.47702 3.57946 3.45656 4.61391C2.43378 5.65228 1.68289 6.83646 1.2464 8.09943C0.812009 9.36284 0.700548 10.6802 0.918327 11.977C1.13833 13.2735 1.68383 14.5239 2.52387 15.6571C3.36242 16.786 4.49044 17.7849 5.82651 18.5583C7.16258 19.3318 8.70646 19.8798 9.95546 20.2199C11.2044 20.5598 12.1585 20.6915 13.1185 20.6915H27.691C28.6508 20.6915 29.6051 20.5598 30.8539 20.2199C32.1029 19.8798 33.6468 19.3319 34.9831 18.5583C36.3189 17.7847 37.4469 16.786 38.2857 15.6571C39.1257 14.5239 39.6713 13.2735 39.8913 11.977C40.1097 10.6803 39.9985 9.36294 39.5639 8.09961ZM25.3929 13.1287C24.9777 14.33 24.2635 15.4563 23.2907 16.4441C22.3161 17.4308 21.1016 18.2592 19.7163 18.8821C18.3296 19.5032 16.7994 19.9065 15.2127 20.0691C13.6258 20.2302 12.0137 20.1478 10.4676 19.8266C8.92207 19.5038 7.47299 18.9487 6.20236 18.1925C4.93285 17.435 3.86718 16.491 3.06588 15.4142C2.26673 14.3364 1.74784 13.147 1.5387 11.9137C1.33089 10.6842 1.43774 9.42291 1.85078 8.22528C2.26381 7.02765 2.98233 5.89405 3.9529 4.91007C4.92747 3.92328 6.14195 3.0949 7.52737 2.47201C8.914 1.85088 10.4441 1.44751 12.0308 1.28481C13.6176 1.12378 15.2298 1.20619 16.7758 1.52737C18.3214 1.8501 19.7706 2.40528 21.0413 3.16147C22.3072 3.91604 23.3804 4.86599 24.178 5.93978C24.9756 7.01357 25.4971 8.21101 25.7049 9.44047C25.9128 10.6699 25.8057 11.931 25.3929 13.1287Z" fill="#383E93"/>
<path fill-rule="evenodd" clip-rule="evenodd" d="M8.82855 7.22466C8.28475 7.68838 7.85595 8.22627 7.56379 8.81119C7.272 9.39634 7.12199 10.0184 7.12134 10.646C7.12134 11.2716 7.27267 11.8972 7.56379 12.4807C7.85492 13.0641 8.28584 13.6052 8.82855 14.0673C9.37127 14.5293 10.0253 14.912 10.7452 15.1919V6.10001C10.0233 6.3807 9.37365 6.76188 8.82855 7.22466ZM18.4468 7.19813C17.8922 6.73392 17.2318 6.35355 16.499 6.07623V15.2157C17.2317 14.9383 17.8921 14.5579 18.4468 14.0938C19.0001 13.6287 19.4369 13.0873 19.7346 12.4976C20.0318 11.9075 20.1848 11.2796 20.1855 10.646C20.1855 10.0141 20.0314 9.38266 19.7346 8.79436C19.4369 8.20461 19.0001 7.66326 18.4468 7.19813Z" fill="#383E93"/>
</svg>
