<svg width="50" height="21" viewBox="0 0 50 21" fill="none" xmlns="http://www.w3.org/2000/svg">
<path d="M7.79373 5.10834C8.35668 4.91244 8.95716 4.80796 9.58016 4.80796C12.3073 4.80796 14.5842 6.82964 15.1046 9.51737L18.9702 8.6946C18.0845 4.12884 14.2164 0.691467 9.58016 0.691467C8.51681 0.691467 7.49849 0.871694 6.54272 1.20603L7.79373 5.10834Z" fill="#FFCB05"/>
<path d="M3.23259 18.1839L5.84719 15.0992C4.68126 14.0204 3.94567 12.4454 3.94567 10.6902C3.94567 8.93751 4.68126 7.36248 5.84719 6.28634L3.23259 3.19897C1.251 5.03259 0 7.70988 0 10.6902C0 13.673 1.251 16.3503 3.23259 18.1839" fill="#00A4E0"/>
<path d="M15.1046 11.8708C14.5817 14.5559 12.3073 16.575 9.58266 16.575C8.95716 16.575 8.35418 16.4705 7.79373 16.272L6.54272 20.1795C7.49849 20.5112 8.51931 20.6915 9.58266 20.6915C14.2139 20.6915 18.0795 17.2593 18.9702 12.6988L15.1046 11.8708Z" fill="#EF4123"/>
<path d="M22.3504 15.2272C22.2228 15.013 22.0527 14.6709 21.9476 14.4175C21.3346 12.9339 21.3071 11.398 21.8225 9.92488C22.3905 8.30806 23.4763 7.07259 24.88 6.44049C26.6439 5.64906 28.5929 5.80317 30.2843 6.85058C31.3576 7.49312 32.1183 8.48568 32.6962 9.89093C32.7688 10.0712 32.8338 10.2618 32.8989 10.4264L22.3504 15.2272ZM25.8732 8.82524C24.6197 9.38681 23.9742 10.6144 24.1093 12.051L29.4136 9.6663C28.5004 8.54837 27.3144 8.17746 25.8732 8.82524V8.82524ZM30.0741 14.0126C30.0716 14.0126 30.0716 14.0153 30.0716 14.0153L29.9615 13.9369C29.6438 14.4724 29.1509 14.9086 28.5279 15.1907C27.3419 15.7287 26.2435 15.5903 25.4529 14.8668L25.3804 14.9817C25.3804 14.9817 25.3804 14.9791 25.3779 14.9791L24.0318 17.0817C24.367 17.3246 24.7248 17.5284 25.1001 17.6929C26.5863 18.3381 28.1075 18.3068 29.6062 17.6276C30.6896 17.1366 31.5403 16.3896 32.1208 15.4414L30.0741 14.0126ZM36.5843 3.3479V15.0339L38.3257 15.7705L37.3374 18.1788L35.4159 17.3429C34.9856 17.147 34.6903 16.8493 34.4701 16.5123C34.2575 16.1701 34.0998 15.6974 34.0998 15.0653V3.3479H36.5843ZM41.093 12.0589C41.093 11.0637 41.5158 10.1704 42.1813 9.56443L40.3949 7.48529C39.1839 8.60322 38.4208 10.2357 38.4208 12.0537C38.4183 13.8742 39.1814 15.5093 40.3899 16.6272L42.1738 14.5481C41.5108 13.9395 41.093 13.0514 41.093 12.0589V12.0589ZM44.2655 15.3735C43.9152 15.3735 43.5749 15.3108 43.2597 15.2011L42.4065 17.847C42.9895 18.0508 43.6125 18.1631 44.263 18.1631C47.0903 18.1657 49.4497 16.0709 49.9976 13.2891L47.3755 12.7302C47.0778 14.2425 45.7992 15.3761 44.2655 15.3735V15.3735ZM44.273 5.95466C43.625 5.95466 43.002 6.06437 42.419 6.26549L43.2647 8.91405C43.5825 8.80434 43.9202 8.74427 44.2705 8.74427C45.8067 8.74688 47.0878 9.8857 47.378 11.4007L50.0001 10.8469C49.4622 8.05992 47.1028 5.95728 44.273 5.95466V5.95466Z" fill="white"/>
</svg>
