<svg width="44" height="21" viewBox="0 0 44 21" fill="none" xmlns="http://www.w3.org/2000/svg">
<g clip-path="url(#clip0_1415_834)">
<path d="M12.0804 0.691467H7.52115C5.50656 0.790951 3.85985 1.63842 3.38438 3.38602C3.13645 4.29743 3.00001 5.2984 2.80614 6.24318C1.82057 11.0471 0.946649 15.9834 0.00390625 20.6915H35.4993C38.2434 20.6915 40.1277 20.0858 40.6367 17.8109C40.8733 16.7542 41.0999 15.5574 41.3262 14.3965C42.2084 9.8698 43.0914 5.34341 43.9951 0.691467H12.0804Z" fill="#822124"/>
<path d="M11.725 7.79946C11.9157 7.66227 12.1613 7.0375 11.8807 6.77738C11.7919 6.69503 11.6432 6.67113 11.4359 6.70775C11.2436 6.74166 11.133 6.80994 11.0578 6.91682C10.9371 7.08864 10.8263 7.60698 11.0134 7.79955C11.1956 7.98697 11.6037 7.88668 11.725 7.79946V7.79946ZM9.01173 6.77738C8.87511 7.70322 8.72123 8.61103 8.56691 9.51838C7.57615 9.52929 6.56459 9.56943 5.60898 9.49511C5.78946 8.60742 5.91891 7.66633 6.09827 6.77738H5.03074C4.64862 9.04179 4.30095 11.3424 3.87427 13.5602H4.96407C5.13497 12.4226 5.2949 11.2733 5.52003 10.192C6.44921 10.1681 7.56285 10.1265 8.45577 10.2153C8.27166 11.3394 8.04921 12.4232 7.87753 13.5602H8.96734C9.3176 11.2624 9.68642 8.98416 10.1239 6.77738H9.01173V6.77738ZM24.4242 8.72864C23.5763 8.37093 22.9096 8.97541 22.6005 9.54165C22.6707 9.28974 22.6995 8.99471 22.7563 8.72864H21.9112C21.7045 10.4022 21.4 11.9734 21.1106 13.5602H22.0669C22.201 12.6183 22.2588 11.3486 22.5561 10.4476C22.7938 9.72754 23.4157 9.11413 24.3131 9.44875C24.3256 9.18313 24.3984 8.98037 24.4242 8.72864V8.72864ZM24.9579 12.4221C24.8697 12.1842 24.847 11.7915 24.869 11.4928C24.9184 10.8217 25.1526 10.0045 25.514 9.63455C26.0127 9.12396 26.9972 9.20847 27.7826 9.4952C27.8068 9.21875 27.86 8.97216 27.8938 8.70546C26.6059 8.48575 25.3838 8.62248 24.7358 9.33267C24.1013 10.0279 23.6856 11.6258 23.9795 12.6312C24.3235 13.8076 25.8663 13.8716 27.1154 13.421C27.1706 13.1845 27.1999 12.9209 27.2488 12.6777C26.5661 13.0479 25.2612 13.2404 24.9579 12.4221V12.4221ZM35.7 8.75182C34.8547 8.31041 34.151 9.05108 33.8763 9.49511C33.9545 9.26728 33.959 8.96215 34.0319 8.72855H33.1868C32.959 10.3876 32.6843 11.9977 32.3641 13.5602H33.3426C33.3488 12.9198 33.4692 12.4461 33.5649 11.8181C33.7694 10.4771 34.0697 9.00662 35.5667 9.44866C35.6162 9.22191 35.6368 8.96468 35.7 8.75182ZM10.7464 8.72864C10.7205 8.73252 10.7223 8.76535 10.7242 8.79827C10.5134 10.4442 10.2282 12.0125 9.92355 13.5602H10.8799C11.1096 11.9031 11.3729 10.2811 11.7027 8.72855L10.7464 8.72864V8.72864ZM19.1532 8.63574C18.4622 8.69139 17.8781 8.89902 17.463 9.35585C16.9538 9.91604 16.5416 11.1547 16.6624 12.2827C16.8348 13.892 18.7531 13.8342 20.2875 13.4442C20.3137 13.1617 20.3791 12.9202 20.4209 12.6543C19.7889 12.9014 18.6914 13.2462 18.0411 12.817C17.5503 12.4928 17.5474 11.6721 17.7075 10.9587C18.7388 10.9244 19.8106 10.9309 20.8434 10.9587C20.9088 10.4531 21.0963 9.90179 20.9323 9.40239C20.7161 8.74307 19.9415 8.57224 19.1532 8.63574ZM20.065 10.4011H17.8187C17.8898 9.86175 18.3544 9.2689 19.0865 9.23968C19.7754 9.21217 20.2687 9.50386 20.065 10.4011V10.4011ZM15.5281 8.72864C14.7187 8.41107 13.7323 8.79015 13.3045 9.15075C13.3061 9.16662 13.2944 9.16879 13.2817 9.16996C13.289 9.16355 13.2969 9.15715 13.3045 9.15075C13.3045 9.14942 13.3043 9.14809 13.3041 9.14678C13.3113 8.99174 13.3635 8.88368 13.3708 8.72864H12.5479C12.205 11.1115 11.7983 13.4277 11.3692 15.7205H12.3255C12.464 14.8276 12.5553 13.8855 12.7482 13.0492C12.9665 13.9288 14.3926 13.7607 14.9944 13.4209C16.236 12.7195 17.1936 9.382 15.5281 8.72864V8.72864ZM14.772 12.6543C14.2603 13.2203 13.0025 13.2118 12.9038 12.2594C12.8608 11.845 13.0086 11.4106 13.0818 10.9819C13.1557 10.5479 13.2089 10.1316 13.2818 9.75072C13.7858 9.108 15.2667 9.03034 15.417 10.0991C15.5473 11.0271 15.1956 12.1856 14.772 12.6543V12.6543ZM39.2583 6.63803C39.1764 7.38862 39.0668 8.11045 38.9248 8.79827C36.579 8.02269 35.1404 9.8254 35.1663 12.0504C35.1714 12.4807 35.2423 12.9074 35.4998 13.2118C35.944 13.7362 37.2153 13.8619 37.8574 13.4208C37.9816 13.3355 38.1086 13.1802 38.1909 13.0725C38.2528 12.9914 38.351 12.779 38.3689 12.8401C38.335 13.0758 38.2846 13.2943 38.28 13.5602H39.1474C39.3146 11.0556 39.8314 8.91651 40.2149 6.63794H39.2584V6.63803H39.2583ZM37.1234 13.0259C36.4796 13.0404 36.1595 12.6242 36.1447 11.9342C36.119 10.7258 36.6266 9.38327 37.6571 9.26286C38.1369 9.20685 38.4843 9.32338 38.8359 9.44875C38.5131 10.8062 38.6296 12.9922 37.1234 13.0259V13.0259ZM28.8722 8.72864C28.8251 9.00463 28.7528 9.25438 28.6943 9.51838C29.2586 9.37055 31.0159 8.91742 31.1852 9.70418C31.2414 9.96556 31.1445 10.2433 31.074 10.4476C29.485 10.2903 28.1899 10.5661 27.8491 11.7483C27.621 12.5402 27.8747 13.3195 28.3607 13.5371C29.2967 13.9559 30.4352 13.4761 30.8293 12.817C30.7884 13.0451 30.7496 13.2758 30.7628 13.5602H31.5856C31.5944 12.7371 31.709 12.0709 31.8302 11.3302C31.9335 10.6995 32.1279 10.0751 32.0971 9.51838C32.0263 8.24348 30.0041 8.69446 28.8722 8.72864V8.72864ZM30.429 12.6311C29.9362 13.135 28.5528 13.2781 28.6943 12.0736C28.8117 11.0731 29.8547 10.8606 30.9849 11.005C30.9009 11.5523 30.8046 12.2471 30.429 12.6311V12.6311Z" fill="white"/>
</g>
<defs>
<clipPath id="clip0_1415_834">
<rect width="44" height="20" fill="white" transform="translate(0 0.691467)"/>
</clipPath>
</defs>
</svg>
