<svg width="50" height="21" viewBox="0 0 50 21" fill="none" xmlns="http://www.w3.org/2000/svg">
<g clip-path="url(#clip0_1415_838)">
<path d="M0.010498 0.691467H49.9897V20.6915H0.010498V0.691467Z" fill="#FCAF26"/>
<path d="M47.0873 17.2013C47.0873 17.6572 46.8152 18.0301 46.4828 18.0301H3.40847C3.076 18.0301 2.80396 17.6572 2.80396 17.2013V4.37683C2.80396 3.92092 3.076 3.5481 3.40847 3.5481H46.4827C46.8151 3.5481 47.0872 3.92092 47.0872 4.37683L47.0873 17.2013Z" fill="#231F20"/>
<path d="M42.4268 12.6521C42.4283 12.6769 42.4293 12.7023 42.4293 12.7279L42.4294 12.7233C42.4295 12.6992 42.4279 12.6758 42.4268 12.6521" fill="#204595"/>
<path d="M13.9653 15.5612C13.2413 16.3135 12.1697 16.4855 10.5911 16.4855H8.3465C5.20407 16.4855 4.20483 15.6864 4.20483 12.9291V11.4247H7.2169C7.2169 11.5658 7.20239 11.7068 7.20239 11.8322C7.20239 13.2107 7.52101 13.6497 8.78105 13.6497H10.2292C11.3877 13.6497 11.5904 13.1796 11.5904 12.036V4.96972H14.8053V13.1484C14.8053 14.1353 14.4721 15.0287 13.9653 15.5612M26.9495 8.9649C26.9495 8.05641 26.4134 7.68032 25.2551 7.68032H22.6773C20.592 7.68032 20.0852 7.97785 20.0852 9.92075V11.5034C20.0852 13.2895 20.7947 13.6497 22.6773 13.6497H24.5455C26.3266 13.6497 27.0362 13.4461 27.0362 12.0828V11.9574H30.2945C30.309 12.2553 30.3235 12.5217 30.3235 12.7881C30.3235 14.198 30.0193 15.1382 29.2663 15.7337C28.4698 16.3758 27.2099 16.5013 25.3709 16.5013H21.7795C20.114 16.5013 18.9411 16.4231 18.0288 15.6552C17.1453 14.9033 16.8122 13.8691 16.8122 12.3179V9.21572C16.8122 5.80009 18.1879 4.82864 21.7795 4.82864H25.3709C27.2101 4.82864 28.4554 4.92272 29.223 5.56501C29.9035 6.12926 30.1931 7.06915 30.1931 8.43221C30.1931 8.63588 30.1931 8.8553 30.1786 9.07464H26.9496V8.9649H26.9495ZM32.3923 16.3603V4.96972H41.8777C44.2382 4.96972 45.3823 6.00392 45.3823 8.15034C45.3823 9.37247 44.89 10.1243 43.8329 10.5633C45.1649 10.7982 45.7445 11.6442 45.7445 13.2738C45.7445 15.4674 44.7018 16.3603 42.3701 16.3603H32.3923V16.3603ZM42.0804 8.46354C42.0804 7.89967 41.7473 7.52387 41.255 7.52387H35.6073V9.40373H41.255C41.7909 9.40373 42.0804 9.07472 42.0804 8.46354ZM42.4279 12.7254C42.4279 12.1143 42.0804 11.7226 41.5446 11.7226H35.6073V13.7752H41.5446C42.1093 13.7752 42.4279 13.3991 42.4279 12.7254Z" fill="white"/>
<path d="M4.20483 4.89355H8.58227V9.43456H4.20483V4.89355Z" fill="#FCAF26"/>
<path d="M7.4036 7.19551C7.4036 7.19551 7.47564 7.19269 7.49588 7.19121C7.51641 7.18972 7.55479 7.18772 7.57815 7.23628C7.58424 7.24883 7.62051 7.36949 7.62516 7.38359C7.62965 7.398 7.64032 7.46319 7.59266 7.47478C7.58381 7.47678 7.49915 7.49483 7.49915 7.49483L7.4036 7.19551V7.19551ZM7.24103 6.64107C7.24103 6.64107 7.33425 6.64849 7.35732 6.6505C7.38024 6.65272 7.39642 6.66401 7.40564 6.68584C7.41151 6.69935 7.44641 6.81029 7.45047 6.82232C7.45446 6.83435 7.47216 6.90088 7.42043 6.90244C7.41253 6.90266 7.31974 6.90244 7.31974 6.90244L7.24103 6.64107V6.64107ZM6.91233 6.32364C6.91233 6.32364 7.30407 6.3843 7.34056 6.39076C7.50379 6.41898 7.57481 6.56139 7.59476 6.62807C7.60158 6.6499 7.64685 6.80494 7.65265 6.8218C7.69719 6.95241 7.58424 7.01983 7.58424 7.01983C7.58424 7.01983 7.71323 7.0453 7.7569 7.15749C7.7569 7.15749 7.83866 7.41575 7.84678 7.44181C7.85462 7.46817 7.91294 7.67429 7.71424 7.75011C7.68769 7.76021 7.36791 7.85243 7.36791 7.85243L6.91233 6.32364V6.32364ZM5.32715 6.0665L5.96917 6.1706L6.07284 6.54884L5.92311 6.53511C5.92311 6.53511 6.292 7.81433 6.30491 7.85406C6.35112 7.99818 6.37927 8.14751 6.17723 8.21938C6.15104 8.22874 5.96279 8.28747 5.93994 8.29334C5.82336 8.32289 5.675 8.32341 5.61755 8.12731L5.38286 7.3363L5.67123 7.31439C5.67123 7.31439 5.79049 7.72033 5.79971 7.7504C5.82604 7.83535 5.84244 7.86795 5.92441 7.84738C5.9847 7.83223 5.98216 7.80594 5.96627 7.74996C5.9596 7.7262 5.6124 6.50867 5.6124 6.50867L5.44815 6.49531L5.32715 6.0665V6.0665Z" fill="#231F20"/>
<path d="M5.32715 6.0665L5.96917 6.1706L6.07284 6.54884L5.92311 6.53511C5.92311 6.53511 6.292 7.81433 6.30491 7.85406C6.35112 7.99818 6.37927 8.14751 6.17723 8.21938C6.15104 8.22874 5.96279 8.28747 5.93994 8.29334C5.82336 8.32289 5.675 8.32341 5.61755 8.12731L5.38286 7.3363L5.67123 7.31439C5.67123 7.31439 5.79049 7.72033 5.79971 7.7504C5.82604 7.83535 5.84244 7.86795 5.92441 7.84738C5.9847 7.83223 5.98216 7.80594 5.96627 7.74996C5.9596 7.7262 5.6124 6.50867 5.6124 6.50867L5.44815 6.49531L5.32715 6.0665V6.0665Z" stroke="#231F20" stroke-width="0.326453" stroke-miterlimit="3.864"/>
<path d="M6.2848 6.21709C6.31273 6.22191 6.51927 6.25733 6.55394 6.26349C6.58891 6.26973 6.78101 6.30367 6.83208 6.49524C6.84449 6.54239 6.94598 6.87927 6.94598 6.87927L6.70208 6.87675C6.70208 6.87675 6.65674 6.71384 6.64702 6.68585C6.62352 6.61701 6.62214 6.59934 6.54879 6.58753C6.47473 6.5784 6.47857 6.61189 6.49526 6.66847C6.5036 6.69773 6.72551 7.49216 6.73545 7.52616C6.7615 7.6166 6.76802 7.65232 6.84616 7.63591C6.91399 7.61891 6.90107 7.5797 6.88373 7.51317C6.85888 7.42625 6.83371 7.33942 6.80821 7.25269L7.05044 7.23331C7.05044 7.23331 7.17377 7.65536 7.1803 7.67504C7.18683 7.69472 7.23841 7.86572 7.09179 7.93923C7.07286 7.94866 7.07286 7.95015 7.05349 7.95713C7.03412 7.96403 6.83796 8.02366 6.81931 8.02915C6.80067 8.03435 6.61379 8.09643 6.55322 7.89728C6.5472 7.87805 6.15226 6.47816 6.1313 6.4094C6.09575 6.29312 6.13355 6.19385 6.2848 6.21709" fill="#231F20"/>
<path d="M6.2848 6.21709C6.31273 6.22191 6.51927 6.25733 6.55394 6.26349C6.58891 6.26973 6.78101 6.30367 6.83208 6.49524C6.84449 6.54239 6.94598 6.87927 6.94598 6.87927L6.70208 6.87675C6.70208 6.87675 6.65674 6.71384 6.64702 6.68585C6.62352 6.61701 6.62214 6.59934 6.54879 6.58753C6.47473 6.5784 6.47857 6.61189 6.49526 6.66847C6.5036 6.69773 6.72551 7.49216 6.73545 7.52616C6.7615 7.6166 6.76802 7.65232 6.84616 7.63591C6.91399 7.61891 6.90107 7.5797 6.88373 7.51317C6.85888 7.42625 6.83371 7.33942 6.80821 7.25269L7.05044 7.23331C7.05044 7.23331 7.17377 7.65536 7.1803 7.67504C7.18683 7.69472 7.23841 7.86572 7.09179 7.93923C7.07286 7.94866 7.07286 7.95015 7.05349 7.95713C7.03412 7.96403 6.83796 8.02366 6.81931 8.02915C6.80067 8.03435 6.61379 8.09643 6.55322 7.89728C6.5472 7.87805 6.15226 6.47816 6.1313 6.4094C6.09575 6.29312 6.13355 6.19385 6.2848 6.21709V6.21709Z" stroke="#231F20" stroke-width="0.326453" stroke-miterlimit="3.864"/>
<path d="M5.06767 5.84598C5.18824 5.86729 7.28174 6.23596 7.37467 6.25282C7.46768 6.26967 7.62408 6.29358 7.68959 6.50401C7.70236 6.54507 7.98637 7.46469 7.99791 7.50442C8.0093 7.54429 8.09185 7.75421 7.85862 7.83262C7.82387 7.84442 5.8558 8.50876 5.80806 8.52421C5.7604 8.54002 5.57425 8.62408 5.49786 8.33353C5.49786 8.33353 4.89704 6.27279 4.86941 6.1796C4.8467 6.10416 4.83074 6.0435 4.82726 5.99635C4.81536 5.82735 4.91228 5.82178 4.99186 5.83351C5.0216 5.83789 5.04837 5.84272 5.06767 5.84598M5.01297 5.73097C5.06586 5.73943 7.35146 6.14767 7.40979 6.15777C7.46869 6.16839 7.69358 6.19438 7.78354 6.47223C7.80095 6.52569 8.08533 7.45133 8.09896 7.49759C8.14902 7.66874 8.12762 7.84762 7.91927 7.92291C7.85042 7.94764 5.88917 8.62148 5.86494 8.62987C5.81104 8.64843 5.52296 8.78669 5.41814 8.42634C5.41814 8.42634 4.78322 6.26588 4.76443 6.20054C4.73505 6.09926 4.7167 6.01342 4.71655 5.95009C4.71648 5.66926 4.9619 5.72525 5.01297 5.73097Z" fill="#231F20"/>
</g>
<defs>
<clipPath id="clip0_1415_838">
<rect width="50" height="20" fill="white" transform="translate(0 0.691437)"/>
</clipPath>
</defs>
</svg>
