<svg width="31" height="15" viewBox="0 0 31 15" fill="none" xmlns="http://www.w3.org/2000/svg">
<path d="M29.122 10.1479C29.122 10.7266 28.0048 11.438 27.0962 11.438H26.2689C26.2698 7.89642 26.2698 3.92605 26.2689 3.22131C26.2686 3.20044 26.2749 3.17974 26.2875 3.16038C26.3001 3.14102 26.3188 3.1234 26.3424 3.10851C26.3661 3.09361 26.3943 3.08175 26.4254 3.0736C26.4564 3.06545 26.4898 3.06118 26.5236 3.06101H28.8661C29.0068 3.06101 29.1221 3.13397 29.1221 3.22257V10.1479H29.122ZM25.3047 12.6807C25.3047 13.047 25.0147 13.6606 23.072 13.6606C19.3073 13.6606 16.9963 11.8377 16.9963 10.5303C16.9963 10.5303 16.9921 6.30299 16.9921 3.22265C16.9917 3.20175 16.998 3.18101 17.0107 3.16162C17.0233 3.14223 17.042 3.12458 17.0657 3.10968C17.0894 3.09478 17.1177 3.08293 17.1489 3.07481C17.18 3.06668 17.2135 3.06245 17.2473 3.06235H19.5926C19.7334 3.06235 19.8491 3.13484 19.8491 3.22398V10.0163C19.8491 11.1386 21.2862 12.0488 23.0578 12.0488H25.3059L25.3047 12.6807ZM29.0439 2.45185H26.3454C25.7717 2.45185 25.3044 2.74803 25.3044 3.11136V11.4387H23.0561C21.8157 11.4387 20.8104 10.8017 20.8104 10.0161V3.11136C20.8104 2.74716 20.3438 2.45154 19.7689 2.45154H17.0692C16.4943 2.45154 16.0278 2.74716 16.0269 3.11136C16.0256 6.12211 16.0311 10.5305 16.0311 10.5305C16.0315 12.8477 20.1317 14.2705 23.0713 14.2705C25.043 14.2705 26.2677 13.66 26.2677 12.6765V12.0487H27.0958C28.5485 12.0487 30.085 11.0719 30.085 10.1479V3.11136C30.0863 2.74716 29.6198 2.45154 29.0441 2.45154V2.45185H29.0439ZM13.0954 11.2906C13.0957 11.3115 13.0894 11.3322 13.0767 11.3515C13.0641 11.3709 13.0454 11.3885 13.0217 11.4034C12.998 11.4182 12.9697 11.4301 12.9386 11.4382C12.9075 11.4463 12.8741 11.4505 12.8403 11.4506H10.495C10.3523 11.4506 10.2379 11.3775 10.2385 11.2894V4.49696C10.2385 3.37478 8.80104 2.4645 7.02983 2.4645H4.78156V1.83249C4.78156 1.46696 5.07156 0.85254 7.0142 0.85254C10.779 0.85254 13.0907 2.67538 13.0907 3.98284C13.0907 3.98284 13.0949 8.23068 13.0949 11.2905H13.0954V11.2906ZM1.21893 11.452C1.07622 11.4494 0.962108 11.3783 0.96376 11.2901V4.36604C0.96376 3.78727 2.08103 3.07499 2.98926 3.07499H3.8173C3.81602 8.14657 3.81602 10.7417 3.8173 11.2898C3.81794 11.3322 3.79141 11.373 3.74352 11.4033C3.69562 11.4335 3.63026 11.4509 3.56174 11.4515H1.21931L1.21893 11.452ZM14.0533 3.98292C14.0538 1.66551 9.95351 0.242676 7.01432 0.242676C5.04207 0.242676 3.8173 0.85309 3.8173 1.83665V2.4645H2.98964C1.5365 2.4645 0 3.4413 0 4.36533V11.4018C0 11.766 0.466503 12.0616 1.04115 12.0616H3.73914C3.75592 12.0616 3.77028 12.0588 3.78705 12.0588C4.33844 12.0424 4.78017 11.7554 4.78017 11.4018V3.07452H7.02881C8.26871 3.07452 9.27453 3.71148 9.27453 4.49704V11.4019C9.27453 11.7661 9.74116 12.0617 10.3157 12.0617H13.0158C13.5907 12.0617 14.057 11.7669 14.057 11.4019C14.059 8.33498 14.0537 3.98276 14.0537 3.98276L14.0533 3.98292Z" fill="white"/>
</svg>
